# This file uses meters as units for non-parametric coordinates.

mtllib Coin.mtl
g default
v 21.278507 10.870155 -2.171238
v 12.445747 19.707924 -2.171234
v 1.234755 23.560501 -2.171234
v -10.245071 21.251038 -2.171234
v -20.105587 12.321533 -2.171234
v -23.560497 1.234734 -2.171236
v -21.105915 -9.558289 -2.171238
v -11.784313 -20.413300 -2.171234
v -1.234753 -23.560509 -2.171234
v 10.137300 -21.057549 -2.171234
v 20.440804 -12.060158 -2.171242
v 23.560497 -1.234764 -2.171236
v 21.278500 10.870155 2.171200
v 12.445759 19.707916 2.171196
v 1.234755 23.560501 2.171196
v -10.245071 21.251045 2.171196
v -20.105579 12.321533 2.171204
v -23.560497 1.234734 2.171201
v -21.105915 -9.558289 2.171200
v -11.784309 -20.413300 2.171196
v -1.234753 -23.560509 2.171196
v 10.137300 -21.057556 2.171196
v 20.440804 -12.060150 2.171196
v 23.560497 -1.234764 2.171201
v 21.928463 11.202194 -0.000015
v 24.280163 -1.272484 -0.000016
v 21.065174 -12.428543 -0.000015
v 10.446949 -21.700760 -0.000015
v -1.272468 -24.280174 -0.000008
v -12.144268 -21.036835 -0.000015
v -21.750607 -9.850258 -0.000015
v -24.280163 1.272453 -0.000016
v -20.719715 12.697899 -0.000019
v -10.558010 21.900162 -0.000015
v 1.272471 24.280167 -0.000008
v 12.825916 20.309906 -0.000015
v 18.636429 9.475395 -1.406441
v 10.893433 17.222794 -1.406441
v 1.038981 20.609177 -1.406441
v -8.911465 18.607407 -1.406441
v -17.611897 10.728455 -1.406441
v -20.606503 1.118790 -1.406442
v -18.479176 -8.235268 -1.406441
v -10.164776 -17.917381 -1.406441
v -1.126736 -20.613670 -1.406441
v 8.810011 -18.426620 -1.406441
v 17.930332 -10.462425 -1.406441
v 20.629421 -1.096542 -1.406442
v 18.636425 9.475395 1.406406
v 10.893433 17.222786 1.406410
v 1.038981 20.609177 1.406410
v -8.911465 18.607407 1.406410
v -17.611897 10.728455 1.406406
v -20.606503 1.118790 1.406406
v -18.479176 -8.235260 1.406406
v -10.164772 -17.917397 1.406410
v -1.126736 -20.613678 1.406410
v 8.810011 -18.426628 1.406410
v 17.930332 -10.462425 1.406406
v 20.629421 -1.096542 1.406406
v 18.636429 9.475395 -0.258419
v 10.893433 17.222794 -0.258415
v 0.000001 -0.000023 -0.258419
v 1.038981 20.609177 -0.258415
v -8.911465 18.607407 -0.258415
v -17.611897 10.728455 -0.258419
v -20.606503 1.118790 -0.258419
v -18.479176 -8.235268 -0.258419
v -10.164776 -17.917397 -0.258415
v -1.126736 -20.613686 -0.258415
v 8.810011 -18.426636 -0.258415
v 17.930332 -10.462425 -0.258419
v 20.629421 -1.096542 -0.258419
v 18.636425 9.475395 0.258385
v 10.893433 17.222786 0.258385
v 0.000001 -0.000023 0.258384
v 1.038981 20.609177 0.258385
v -8.911465 18.607407 0.258385
v -17.611897 10.728455 0.258385
v -20.606503 1.118790 0.258384
v -18.479176 -8.235268 0.258385
v -10.164772 -17.917381 0.258385
v -1.126736 -20.613686 0.258385
v 8.810011 -18.426636 0.258385
v 17.930332 -10.462425 0.258385
v 20.629421 -1.096542 0.258384
vt 0.040012 0.373817
vt 0.045059 0.227710
vt 0.064921 0.233542
vt 0.060639 0.368804
vt 0.131848 0.122773
vt 0.117187 0.107989
vt 0.241743 0.060680
vt 0.236825 0.040470
vt 0.392507 0.043611
vt 0.386279 0.063615
vt 0.491546 0.131082
vt 0.507465 0.116517
vt 0.549921 0.234703
vt 0.570002 0.229934
vt 0.567449 0.395021
vt 0.547477 0.389441
vt 0.485483 0.488718
vt 0.500417 0.504406
vt 0.376387 0.551334
vt 0.381422 0.571281
vt 0.222607 0.568722
vt 0.228336 0.548157
vt 0.124842 0.485100
vt 0.110052 0.499455
vt 0.252231 0.990340
vt 0.002441 0.383055
vt 0.195301 0.798859
vt 0.340773 0.939412
vt 0.390150 0.853035
vt 0.388072 0.737993
vt 0.336426 0.653922
vt 0.253643 0.609317
vt 0.128545 0.608281
vt 0.050362 0.657630
vt 0.002441 0.745100
vt 0.002441 0.863792
vt 0.054193 0.944110
vt 0.749217 0.285443
vt 0.124823 0.251161
vt 0.799416 0.484142
vt 0.174151 0.166425
vt 0.256834 0.119381
vt 0.367955 0.122378
vt 0.447425 0.172173
vt 0.489641 0.250429
vt 0.489503 0.371019
vt 0.443432 0.445332
vt 0.360453 0.491264
vt 0.245965 0.490611
vt 0.169240 0.441529
vt 0.140838 0.469413
vt 0.080945 0.363658
vt 0.234581 0.528047
vt 0.370597 0.529785
vt 0.470704 0.473558
vt 0.527041 0.382617
vt 0.528341 0.240542
vt 0.476114 0.145479
vt 0.379541 0.084636
vt 0.247112 0.081222
vt 0.146735 0.138369
vt 0.086442 0.239835
vt 0.013605 0.380319
vt 0.021404 0.220695
vt 0.099523 0.089058
vt 0.230184 0.013613
vt 0.399506 0.018722
vt 0.525841 0.098435
vt 0.593841 0.223980
vt 0.593946 0.402407
vt 0.518879 0.522695
vt 0.387544 0.594886
vt 0.215310 0.595130
vt 0.092452 0.516514
vt 0.114348 0.248123
vt 0.108578 0.356765
vt 0.166699 0.158859
vt 0.254297 0.109060
vt 0.370951 0.112123
vt 0.455170 0.164905
vt 0.500194 0.247887
vt 0.499669 0.373922
vt 0.450833 0.452997
vt 0.363124 0.501721
vt 0.243049 0.500742
vt 0.161511 0.449086
vt 0.084117 0.524537
vt 0.145103 0.997559
vt 0.212275 0.606227
vt 0.390431 0.606084
vt 0.526726 0.531142
vt 0.605076 0.405381
vt 0.605076 0.221227
vt 0.534386 0.090696
vt 0.402974 0.007708
vt 0.227396 0.002441
vt 0.091283 0.080995
vt 0.010301 0.217416
vt 0.658308 0.338892
vt 0.118712 0.354204
vt 0.606556 0.419209
vt 0.606556 0.537901
vt 0.654477 0.625371
vt 0.732659 0.674721
vt 0.857757 0.673684
vt 0.940541 0.629079
vt 0.992187 0.545008
vt 0.994265 0.429966
vt 0.944888 0.343589
vt 0.856346 0.292662
vn 0.836943 0.445001 -0.318592
vn 0.508130 0.802942 -0.311590
vn 0.535126 0.844772 0.000000
vn 0.883711 0.468033 0.000001
vn 0.067080 0.997748 -0.000000
vn 0.065053 0.946868 -0.314976
vn -0.465086 0.885265 -0.000000
vn -0.443050 0.839405 -0.314811
vn -0.789818 0.526475 -0.314662
vn -0.833178 0.553005 0.000000
vn -0.998923 0.046395 0.000000
vn -0.948128 0.042728 -0.315005
vn -0.879407 -0.476071 0.000000
vn -0.834575 -0.455991 -0.309123
vn -0.549091 -0.774729 -0.313519
vn -0.573497 -0.819208 0.000000
vn -0.030210 -0.999544 -0.000000
vn -0.027166 -0.948725 -0.314933
vn 0.467837 -0.883815 -0.000000
vn 0.446001 -0.838850 -0.312110
vn 0.784597 -0.533364 -0.316118
vn 0.829152 -0.559024 0.000000
vn 0.999324 -0.036763 0.000001
vn 0.948475 -0.034429 -0.314976
vn -0.000000 0.000000 -1.000000
vn -0.000000 0.000000 -1.000000
vn 0.000000 -0.000000 -1.000000
vn 0.000000 0.000000 -1.000000
vn 0.000000 0.000000 -1.000000
vn 0.000000 0.000000 -1.000000
vn -0.000000 -0.000000 -1.000000
vn 0.000000 -0.000000 -1.000000
vn 0.000000 -0.000000 -1.000000
vn -0.000000 -0.000000 -1.000000
vn -0.000000 -0.000000 -1.000000
vn -0.000000 -0.000000 -1.000000
vn 0.000000 -0.000000 -1.000000
vn -0.000000 -0.000000 1.000000
vn -0.000000 -0.000000 1.000000
vn 0.000000 -0.000000 1.000000
vn -0.000000 -0.000000 1.000000
vn 0.000000 -0.000000 1.000000
vn 0.000000 -0.000000 1.000000
vn 0.000000 -0.000000 1.000000
vn 0.000000 0.000000 1.000000
vn 0.000000 0.000000 1.000000
vn 0.000000 0.000000 1.000000
vn -0.000000 0.000000 1.000000
vn -0.000000 0.000000 1.000000
vn -0.000000 0.000000 1.000000
vn 0.948474 -0.034429 0.314978
vn 0.836942 0.445000 0.318595
vn 0.784597 -0.533363 0.316120
vn 0.446001 -0.838850 0.312112
vn -0.027166 -0.948725 0.314934
vn -0.549091 -0.774728 0.313521
vn -0.834574 -0.455991 0.309125
vn -0.948127 0.042729 0.315006
vn -0.789817 0.526475 0.314662
vn -0.443050 0.839405 0.314811
vn 0.065054 0.946867 0.314977
vn 0.508131 0.802940 0.311593
vn -0.135068 -0.213402 -0.967583
vn -0.219022 -0.116315 -0.968762
vn -0.219022 -0.116315 -0.968762
vn -0.135068 -0.213402 -0.967583
vn -0.017206 -0.249744 -0.968159
vn -0.017206 -0.249744 -0.968159
vn 0.116805 -0.221177 -0.968213
vn 0.116805 -0.221177 -0.968214
vn 0.208224 -0.138856 -0.968175
vn 0.208224 -0.138856 -0.968175
vn 0.250201 -0.011440 -0.968126
vn 0.250201 -0.011441 -0.968127
vn 0.220991 0.120685 -0.967780
vn 0.220991 0.120684 -0.967780
vn 0.144063 0.203276 -0.968465
vn 0.144064 0.203276 -0.968465
vn 0.007078 0.250958 -0.967972
vn 0.007078 0.250958 -0.967972
vn -0.117936 0.221870 -0.967918
vn -0.117936 0.221870 -0.967918
vn -0.205979 0.139948 -0.968497
vn -0.205980 0.139948 -0.968497
vn -0.252063 0.009078 -0.967668
vn -0.252063 0.009078 -0.967668
vn -0.219021 -0.116314 0.968762
vn -0.135067 -0.213400 0.967583
vn -0.135067 -0.213400 0.967583
vn -0.219021 -0.116315 0.968762
vn -0.017206 -0.249742 0.968160
vn -0.017206 -0.249742 0.968160
vn 0.116805 -0.221175 0.968214
vn 0.116805 -0.221175 0.968214
vn 0.208224 -0.138856 0.968175
vn 0.208224 -0.138856 0.968174
vn 0.250201 -0.011441 0.968126
vn 0.250201 -0.011441 0.968126
vn 0.220990 0.120684 0.967780
vn 0.220990 0.120684 0.967780
vn 0.144063 0.203275 0.968465
vn 0.144063 0.203275 0.968465
vn 0.007078 0.250957 0.967972
vn 0.007078 0.250957 0.967972
vn -0.117935 0.221868 0.967918
vn -0.117935 0.221868 0.967919
vn -0.205978 0.139946 0.968498
vn -0.205978 0.139946 0.968498
vn -0.252062 0.009077 0.967669
vn -0.252062 0.009077 0.967669
vn -0.534666 -0.845064 0.000000
vn -0.707308 -0.706906 0.000000
vn -0.707308 -0.706906 0.000000
vn -0.534666 -0.845064 0.000000
vn -0.324987 -0.945719 0.000000
vn -0.324987 -0.945719 0.000000
vn 0.197223 -0.980359 0.000000
vn 0.197223 -0.980359 0.000000
vn 0.197223 -0.980359 0.000000
vn 0.197223 -0.980359 0.000000
vn 0.671247 -0.741233 0.000000
vn 0.671247 -0.741233 0.000000
vn 0.671247 -0.741233 0.000000
vn 0.671247 -0.741233 0.000000
vn 0.954718 -0.297513 0.000000
vn 0.954718 -0.297513 0.000000
vn 0.954718 -0.297513 0.000000
vn 0.954718 -0.297513 0.000000
vn 0.876763 0.480922 0.000003
vn 0.975101 0.221760 0.000000
vn 0.975101 0.221760 0.000000
vn 0.876763 0.480922 0.000003
vn 0.758659 0.651488 0.000005
vn 0.758659 0.651489 0.000005
vn 0.026828 0.999640 0.000013
vn 0.285877 0.958266 0.000013
vn 0.285877 0.958266 0.000013
vn 0.026828 0.999640 0.000013
vn -0.470138 0.882593 0.000009
vn -0.470136 0.882594 0.000009
vn -0.657752 0.753234 0.000004
vn -0.657752 0.753234 0.000004
vn -0.999374 0.035393 0.000000
vn -0.960895 0.276914 0.000000
vn -0.960895 0.276914 0.000000
vn -0.999374 0.035393 0.000000
vn -0.982691 -0.185254 0.000000
vn -0.982691 -0.185254 0.000000
vn -0.707308 -0.706906 0.000000
vn -0.534666 -0.845064 0.000000
vn -0.534666 -0.845064 0.000000
vn -0.707308 -0.706906 0.000000
vn -0.324987 -0.945718 0.000000
vn -0.324987 -0.945718 0.000000
vn 0.197223 -0.980359 0.000000
vn 0.197223 -0.980359 0.000000
vn 0.197223 -0.980359 0.000000
vn 0.197223 -0.980359 0.000000
vn 0.671247 -0.741233 0.000000
vn 0.671247 -0.741233 0.000000
vn 0.671247 -0.741233 0.000000
vn 0.671247 -0.741233 0.000000
vn 0.954718 -0.297513 0.000000
vn 0.954718 -0.297513 0.000000
vn 0.954718 -0.297513 0.000000
vn 0.954718 -0.297513 0.000000
vn 0.975101 0.221760 -0.000001
vn 0.876764 0.480922 0.000001
vn 0.876763 0.480923 0.000001
vn 0.975101 0.221760 -0.000001
vn 0.758659 0.651489 0.000002
vn 0.758659 0.651489 0.000002
vn 0.285877 0.958266 0.000003
vn 0.026828 0.999640 -0.000002
vn 0.026828 0.999640 -0.000002
vn 0.285877 0.958266 0.000003
vn -0.470137 0.882593 -0.000004
vn -0.470136 0.882594 -0.000004
vn -0.657752 0.753234 -0.000002
vn -0.657752 0.753234 -0.000002
vn -0.960895 0.276914 0.000000
vn -0.999374 0.035393 0.000000
vn -0.999373 0.035393 0.000000
vn -0.960895 0.276914 0.000000
vn -0.982691 -0.185254 0.000000
vn -0.982691 -0.185254 0.000000
s 1
g Coin
usemtl initialShadingGroup
f 1/1/1 2/2/2 36/3/3 25/4/4
f 35/5/5 36/3/3 2/2/2 3/6/6
f 34/7/7 35/5/5 3/6/6 4/8/8
f 4/8/8 5/9/9 33/10/10 34/7/7
f 32/11/11 33/10/10 5/9/9 6/12/12
f 31/13/13 32/11/11 6/12/12 7/14/14
f 7/14/14 8/15/15 30/16/16 31/13/13
f 29/17/17 30/16/16 8/15/15 9/18/18
f 28/19/19 29/17/17 9/18/18 10/20/20
f 10/20/20 11/21/21 27/22/22 28/19/19
f 26/23/23 27/22/22 11/21/21 12/24/24
f 25/4/4 26/23/23 12/24/24 1/1/1
s 2
f 62/25/25 61/88/26 63/27/27
f 64/28/28 62/25/25 63/27/27
f 65/29/29 64/28/28 63/27/27
f 66/30/30 65/29/29 63/27/27
f 67/31/31 66/30/30 63/27/27
f 68/32/32 67/31/31 63/27/27
f 69/33/33 68/32/32 63/27/27
f 70/34/34 69/33/33 63/27/27
f 71/35/35 70/34/34 63/27/27
f 72/36/36 71/35/35 63/27/27
f 73/37/37 72/36/36 63/27/27
f 61/88/26 73/37/37 63/27/27
s 3
f 74/38/38 75/110/39 76/40/40
f 76/40/40 75/110/39 77/109/41
f 76/40/40 77/109/41 78/108/42
f 78/108/42 79/107/43 76/40/40
f 76/40/40 79/107/43 80/106/44
f 76/40/40 80/106/44 81/105/45
f 81/105/45 82/104/46 76/40/40
f 76/40/40 82/104/46 83/103/47
f 76/40/40 83/103/47 84/102/48
f 84/102/48 85/101/49 76/40/40
f 76/40/40 85/101/49 86/99/50
f 76/40/40 86/99/50 74/38/38
s 1
f 24/51/51 26/23/23 25/4/4 13/52/52
f 23/53/53 27/22/22 26/23/23 24/51/51
f 28/19/19 27/22/22 23/53/53 22/54/54
f 21/55/55 29/17/17 28/19/19 22/54/54
f 20/56/56 30/16/16 29/17/17 21/55/55
f 31/13/13 30/16/16 20/56/56 19/57/57
f 18/58/58 32/11/11 31/13/13 19/57/57
f 17/59/59 33/10/10 32/11/11 18/58/58
f 34/7/7 33/10/10 17/59/59 16/60/60
f 15/61/61 35/5/5 34/7/7 16/60/60
f 14/62/62 36/3/3 35/5/5 15/61/61
f 25/4/4 36/3/3 14/62/62 13/52/52
s 4
f 2/2/63 1/1/64 37/63/65 38/64/66
f 3/6/67 2/2/63 38/64/66 39/65/68
f 4/8/69 3/6/67 39/65/68 40/66/70
f 5/9/71 4/8/69 40/66/70 41/67/72
f 6/12/73 5/9/71 41/67/72 42/68/74
f 7/14/75 6/12/73 42/68/74 43/69/76
f 8/15/77 7/14/75 43/69/76 44/70/78
f 9/18/79 8/15/77 44/70/78 45/71/80
f 10/20/81 9/18/79 45/71/80 46/72/82
f 11/21/83 10/20/81 46/72/82 47/73/84
f 12/24/85 11/21/83 47/73/84 48/74/86
f 1/1/64 12/24/85 48/74/86 37/63/65
s 5
f 13/52/87 14/62/88 50/75/89 49/76/90
f 14/62/88 15/61/91 51/77/92 50/75/89
f 15/61/91 16/60/93 52/78/94 51/77/92
f 16/60/93 17/59/95 53/79/96 52/78/94
f 17/59/95 18/58/97 54/80/98 53/79/96
f 18/58/97 19/57/99 55/81/100 54/80/98
f 19/57/99 20/56/101 56/82/102 55/81/100
f 20/56/101 21/55/103 57/83/104 56/82/102
f 21/55/103 22/54/105 58/84/106 57/83/104
f 22/54/105 23/53/107 59/85/108 58/84/106
f 23/53/107 24/51/109 60/86/110 59/85/108
f 24/51/109 13/52/87 49/76/90 60/86/110
s 6
f 38/64/111 37/63/112 61/26/113 62/98/114
f 39/65/115 38/64/111 62/98/114 64/97/116
s off
f 40/66/117 39/65/118 64/97/119 65/96/120
f 41/67/121 40/66/122 65/96/123 66/95/124
f 42/68/125 41/67/126 66/95/127 67/94/128
s 7
f 43/69/129 42/68/130 67/94/131 68/93/132
f 44/70/133 43/69/129 68/93/132 69/92/134
s 8
f 45/71/135 44/70/136 69/92/137 70/91/138
f 46/72/139 45/71/135 70/91/138 71/90/140
f 47/73/141 46/72/139 71/90/140 72/89/142
s 9
f 48/74/143 47/73/144 72/89/145 73/87/146
f 37/63/147 48/74/143 73/87/146 61/26/148
s 10
f 49/76/149 50/75/150 75/39/151 74/100/152
f 50/75/150 51/77/153 77/41/154 75/39/151
s off
f 51/77/155 52/78/156 78/42/157 77/41/158
f 52/78/159 53/79/160 79/43/161 78/42/162
f 53/79/163 54/80/164 80/44/165 79/43/166
s 11
f 54/80/167 55/81/168 81/45/169 80/44/170
f 55/81/168 56/82/171 82/46/172 81/45/169
s 12
f 56/82/173 57/83/174 83/47/175 82/46/176
f 57/83/174 58/84/177 84/48/178 83/47/175
f 58/84/177 59/85/179 85/49/180 84/48/178
s 13
f 59/85/181 60/86/182 86/50/183 85/49/184
f 60/86/182 49/76/185 74/100/186 86/50/183
