# This file uses meters as units for non-parametric coordinates.

mtllib Floating piece 5.mtl
g default
v -450.000000 148.632141 -100.000000
v -450.000000 -68.796265 -100.000000
v -350.000000 -113.704041 -100.000000
v -350.000000 173.580872 -100.000000
v -250.000000 -95.408325 -100.000000
v -250.000000 146.968933 -100.000000
v -150.000000 -155.285278 -100.000000
v -150.000000 153.621948 -100.000000
v -50.000000 -136.989502 -100.000000
v -50.000000 176.907471 -100.000000
v 50.000000 -140.316040 -100.000000
v 50.000000 150.295471 -100.000000
v 150.000000 -176.907471 -100.000000
v 150.000000 82.102356 -100.000000
v 250.000000 -175.244202 -100.000000
v 250.000000 67.133240 -100.000000
v 350.000000 -148.632263 -100.000000
v 350.000000 70.459656 -100.000000
v 450.000000 -176.907471 -100.000000
v 450.000000 67.133240 -100.000000
v -541.818359 -27.562927 89.351212
v -539.865234 -17.330139 100.000000
v -550.000000 -14.919678 89.351212
v -450.000000 -57.880219 100.000000
v -450.000000 -68.796265 89.083961
v -550.000000 107.733154 89.393890
v -539.796875 109.554199 100.000000
v -541.134766 119.832153 89.393890
v -450.000000 148.632141 89.551994
v -447.158203 138.572754 100.000000
v -550.000000 107.871765 -100.000000
v -541.267578 119.790405 -100.000000
v -541.972656 -27.493652 -100.000000
v -550.000000 -15.088806 -100.000000
v -348.683594 -102.841827 100.000000
v -350.000000 -113.704041 89.551994
v -350.000000 173.580872 89.551994
v -350.083984 162.791626 100.000000
v -248.009766 -84.422638 100.000000
v -250.000000 -95.408325 89.551994
v -250.000000 146.968933 89.551994
v -251.023438 136.429749 100.000000
v -148.009766 -144.299591 100.000000
v -150.000000 -155.285278 89.551994
v -150.000000 153.621948 89.551994
v -148.458984 143.253418 100.000000
v -50.775391 -126.509918 100.000000
v -50.000000 -136.989502 89.551994
v -50.000000 176.907471 89.551994
v -50.167969 166.140686 100.000000
v 52.019531 -129.929413 100.000000
v 50.000000 -140.316040 89.551994
v 50.000000 150.295471 89.551994
v 45.587891 140.657898 100.000000
v 151.767578 -166.428619 100.000000
v 150.000000 -176.907471 89.551994
v 150.000000 82.102356 89.551994
v 146.087891 72.123413 100.000000
v 248.548828 -164.818909 100.000000
v 250.000000 -175.244202 89.551994
v 250.000000 67.133240 89.551994
v 249.394531 56.659363 100.000000
v 350.083984 -137.798309 100.000000
v 350.000000 -148.632263 89.551994
v 350.000000 70.459656 89.551994
v 350.000000 60.005859 100.000000
v 448.501953 -165.626404 100.000000
v 450.000000 -176.907471 89.551994
v 450.000000 67.133240 89.551994
v 448.300781 56.736023 100.000000
v 539.923828 -111.319550 100.000000
v 542.630859 -121.442413 89.433594
v 550.000000 -108.442200 89.433594
v 550.000000 -108.538452 -100.000000
v 542.714844 -121.392975 -100.000000
v 550.000000 27.917480 89.476028
v 541.048828 39.874817 89.400070
v 539.787109 29.591309 100.000000
v 541.175781 39.836426 -100.000000
v 550.000000 27.984436 -100.000000
vt 0.267119 0.893158
vt 0.269495 0.894707
vt 0.268283 0.917020
vt 0.266518 0.916872
vt 0.269085 0.892951
vt 0.263610 0.881776
vt 0.265444 0.881787
vt 0.284676 0.893646
vt 0.284164 0.895343
vt 0.260430 0.869445
vt 0.261939 0.869251
vt 0.286603 0.894036
vt 0.309108 0.898719
vt 0.283183 0.917980
vt 0.288243 0.882864
vt 0.289914 0.883314
vt 0.291237 0.871701
vt 0.292791 0.871824
vt 0.261263 0.857678
vt 0.263386 0.857509
vt 0.290387 0.859832
vt 0.292334 0.859934
vt 0.257643 0.844975
vt 0.259143 0.844844
vt 0.291864 0.848000
vt 0.293696 0.848284
vt 0.259070 0.833205
vt 0.260889 0.833393
vt 0.294183 0.836616
vt 0.295744 0.836656
vt 0.259731 0.821228
vt 0.261683 0.821093
vt 0.292920 0.825359
vt 0.294512 0.825064
vt 0.258434 0.809224
vt 0.260094 0.809176
vt 0.288368 0.812264
vt 0.290333 0.811826
vt 0.259217 0.797980
vt 0.260894 0.798206
vt 0.287476 0.799441
vt 0.289317 0.799375
vt 0.261596 0.786281
vt 0.263608 0.786449
vt 0.287382 0.787231
vt 0.289120 0.787194
vt 0.260935 0.774660
vt 0.262432 0.774848
vt 0.286871 0.775552
vt 0.288482 0.775363
vt 0.265450 0.763112
vt 0.267421 0.763664
vt 0.284424 0.764458
vt 0.285839 0.762986
vt 0.267981 0.762003
vt 0.284107 0.762684
vt 0.243025 0.758171
vt 0.268914 0.739301
vt 0.285471 0.740423
vt 0.287236 0.740591
vt 0.311769 0.887530
vt 0.241654 0.885926
vt 0.238916 0.872623
vt 0.314270 0.874961
vt 0.237816 0.860460
vt 0.315445 0.861896
vt 0.236265 0.845890
vt 0.316367 0.849653
vt 0.236367 0.833483
vt 0.317177 0.836897
vt 0.236393 0.821482
vt 0.316458 0.823613
vt 0.236265 0.808366
vt 0.313858 0.808778
vt 0.237069 0.796049
vt 0.312288 0.796982
vt 0.238396 0.783733
vt 0.311400 0.785114
vt 0.239938 0.770758
vt 0.310440 0.772981
vt 0.308888 0.761666
vt 0.286312 0.764294
vt 0.266214 0.762095
vt 0.267152 0.739277
vt 0.285935 0.895217
vt 0.284945 0.917999
vt 0.267741 0.894428
vt 0.244392 0.897934
vn -0.839549 -0.543284 0.000485
vn -0.839549 -0.543284 0.000485
vn -0.839549 -0.543284 0.000485
vn -0.839549 -0.543284 0.000485
vn -0.584465 -0.325495 0.743272
vn -0.315804 -0.661879 0.679841
vn -0.297390 -0.662686 0.687318
vn -0.298016 -0.664138 0.685644
vn -0.724072 -0.013787 0.689587
vn -0.555411 0.331920 0.762461
vn -0.723692 0.015383 0.689952
vn -0.095098 -0.692720 0.714910
vn -0.094660 -0.692760 0.714929
vn -0.806650 0.591030 0.000434
vn -0.806649 0.591030 0.000434
vn -0.806650 0.591030 0.000434
vn -0.806650 0.591030 0.000434
vn -0.234069 0.676602 0.698156
vn -0.192419 0.683681 0.703957
vn -0.192440 0.683678 0.703954
vn 0.006685 0.695612 0.718386
vn 0.006682 0.695612 0.718386
vn -0.138693 -0.669184 0.730039
vn -0.138680 -0.669187 0.730039
vn 0.068739 0.698988 0.711822
vn 0.068742 0.698988 0.711822
vn -0.140852 -0.668765 0.730010
vn -0.140865 -0.668762 0.730010
vn -0.103902 0.698252 0.708271
vn -0.103905 0.698252 0.708272
vn 0.051573 -0.703182 0.709137
vn 0.051574 -0.703182 0.709137
vn 0.010468 0.696281 0.717693
vn 0.010459 0.696281 0.717693
vn -0.136687 -0.689195 0.711567
vn -0.136690 -0.689194 0.711567
vn 0.301997 0.633764 0.712138
vn 0.302000 0.633763 0.712138
vn -0.121574 -0.690468 0.713073
vn -0.121570 -0.690469 0.713073
vn 0.267013 0.645000 0.716016
vn 0.267002 0.645005 0.716016
vn 0.099632 -0.697399 0.709724
vn 0.099636 -0.697399 0.709724
vn 0.041440 0.704423 0.708570
vn 0.041436 0.704423 0.708570
vn -0.004287 -0.694149 0.719819
vn -0.004290 -0.694149 0.719819
vn -0.000136 0.706912 0.707301
vn -0.000136 0.706912 0.707301
vn -0.192394 -0.680431 0.707106
vn -0.192394 -0.680431 0.707106
vn 0.112431 0.698380 0.706841
vn 0.112507 0.698371 0.706838
vn 0.366708 -0.614099 0.698862
vn 0.366708 -0.614099 0.698862
vn 0.379998 -0.608655 0.696521
vn 0.607204 -0.289389 0.739971
vn 0.227171 0.678982 0.698124
vn 0.223776 0.679713 0.698509
vn 0.722203 -0.010832 0.691597
vn 0.720658 0.000249 0.693291
vn 0.720658 0.000249 0.693291
vn 0.998801 -0.048954 0.000025
vn 0.564590 -0.825372 0.000033
vn 0.564675 -0.825313 0.000033
vn 0.998798 -0.049017 0.000025
vn 0.801317 0.598240 0.000314
vn 0.801317 0.598240 0.000314
vn 0.801317 0.598240 0.000314
vn 0.801317 0.598240 0.000314
vn 0.000000 0.000000 1.000000
vn -0.000000 0.000000 1.000000
vn -0.000000 0.000000 1.000000
vn 0.000000 0.000000 1.000000
vn -0.301326 0.953521 0.000001
vn -0.270697 0.962665 0.000000
vn -0.270713 0.962660 0.000000
vn -0.301326 0.953521 0.000001
vn -0.409663 -0.912237 0.000000
vn -0.409663 -0.912237 0.000000
vn -0.409664 -0.912237 0.000000
vn -0.409664 -0.912237 0.000000
vn 1.000000 0.000000 0.000000
vn 1.000000 0.000000 0.000000
vn -1.000000 0.000000 0.000000
vn -1.000000 0.000000 0.000000
vn -1.000000 0.000000 0.000000
vn -1.000000 0.000000 0.000000
vn -0.409665 -0.912236 0.000000
vn -0.409665 -0.912236 0.000000
vn 0.008316 0.999965 0.000000
vn 0.008316 0.999965 0.000000
vn -0.000000 0.000000 1.000000
vn -0.000000 0.000000 1.000000
vn 0.179970 -0.983672 0.000000
vn 0.179970 -0.983672 0.000000
vn 0.179970 -0.983672 0.000000
vn 0.179970 -0.983672 0.000000
vn 0.099301 0.995057 0.000000
vn 0.099301 0.995057 0.000000
vn -0.000000 0.000000 1.000000
vn -0.000000 0.000000 1.000000
vn -0.513719 -0.857958 0.000000
vn -0.513719 -0.857958 0.000000
vn -0.513719 -0.857958 0.000000
vn -0.513719 -0.857958 0.000000
vn -0.148043 0.988981 0.000000
vn -0.148043 0.988981 0.000000
vn 0.000000 0.000000 1.000000
vn 0.000000 0.000000 1.000000
vn 0.179970 -0.983672 0.000000
vn 0.179970 -0.983672 0.000000
vn 0.074637 -0.997211 0.000000
vn 0.074637 -0.997211 0.000000
vn 0.016630 0.999862 0.000000
vn 0.016630 0.999862 0.000000
vn 0.000000 0.000000 1.000000
vn 0.000000 0.000000 1.000000
vn -0.195729 -0.980658 0.000000
vn -0.195729 -0.980658 0.000000
vn 0.428338 0.903619 0.000000
vn 0.428338 0.903619 0.000000
vn -0.000000 0.000000 1.000000
vn -0.000000 0.000000 1.000000
vn -0.172037 -0.985091 0.000000
vn -0.172037 -0.985091 0.000000
vn 0.383942 0.923357 0.000000
vn 0.383942 0.923357 0.000000
vn -0.000000 0.000000 1.000000
vn -0.000000 0.000000 1.000000
vn 0.139984 -0.990154 0.000000
vn 0.139984 -0.990154 0.000000
vn 0.058115 0.998310 0.000000
vn 0.058115 0.998310 0.000000
vn 0.000000 0.000000 1.000000
vn 0.000000 0.000000 1.000000
vn 0.257169 -0.966367 0.000000
vn 0.257169 -0.966367 0.000000
vn 0.000000 1.000000 0.000000
vn 0.000000 1.000000 0.000000
vn 0.000000 0.000000 1.000000
vn 0.000000 0.000000 1.000000
vn -0.272085 -0.962273 0.000000
vn -0.272085 -0.962273 0.000000
vn -0.272085 -0.962273 0.000000
vn -0.272085 -0.962273 0.000000
vn 0.158031 0.987434 -0.000000
vn 0.158096 0.987424 -0.000000
vn 0.000000 0.000000 1.000000
vn 0.000000 0.000000 1.000000
vn 0.513720 -0.857958 0.000002
vn 0.513720 -0.857958 0.000002
vn 0.286807 0.957988 -0.000001
vn 0.286807 0.957988 -0.000001
vn -0.000000 0.000000 1.000000
vn -0.000000 0.000000 1.000000
vn 0.660546 0.498048 0.561807
s off
g Floating_piece_5
usemtl initialShadingGroup
f 21/87/1 23/2/2 34/3/3 33/4/4
s 1
f 22/5/5 21/1/6 25/6/7 24/7/8
f 23/2/9 22/5/5 27/8/10 26/9/11
f 24/7/8 25/6/7 36/10/12 35/11/13
s off
f 26/9/14 28/85/15 32/86/16 31/14/17
s 1
f 28/12/18 27/8/10 30/15/19 29/16/20
f 29/16/20 30/15/19 38/17/21 37/18/22
f 35/11/13 36/10/12 40/19/23 39/20/24
f 37/18/22 38/17/21 42/21/25 41/22/26
f 39/20/24 40/19/23 44/23/27 43/24/28
f 41/22/26 42/21/25 46/25/29 45/26/30
f 43/24/28 44/23/27 48/27/31 47/28/32
f 45/26/30 46/25/29 50/29/33 49/30/34
f 47/28/32 48/27/31 52/31/35 51/32/36
f 49/30/34 50/29/33 54/33/37 53/34/38
f 51/32/36 52/31/35 56/35/39 55/36/40
f 53/34/38 54/33/37 58/37/41 57/38/42
f 55/36/40 56/35/39 60/39/43 59/40/44
f 57/38/42 58/37/41 62/41/45 61/42/46
f 59/40/44 60/39/43 64/43/47 63/44/48
f 61/42/46 62/41/45 66/45/49 65/46/50
f 63/44/48 64/43/47 68/47/51 67/48/52
f 65/46/50 66/45/49 70/49/53 69/50/54
s 2
f 67/48/55 68/47/56 72/51/57 71/52/58
s 1
f 69/50/54 70/49/53 78/53/59 77/82/60
s 2
f 71/52/58 73/55/61 76/56/62 78/53/63
s 3
f 73/55/64 72/83/65 75/84/66 74/58/67
s off
f 77/54/68 76/56/69 80/59/70 79/60/71
s 4
f 22/5/72 24/7/73 30/15/74 27/8/75
s 5
f 28/12/76 29/16/77 1/61/78 32/13/79
s 6
f 21/1/80 33/88/81 2/62/82 25/6/83
s 3
f 73/55/64 74/58/67 80/59/84 76/56/85
s off
f 34/3/86 23/2/87 26/9/88 31/14/89
s 6
f 25/6/83 2/62/82 3/63/90 36/10/91
s 5
f 1/61/78 29/16/77 37/18/92 4/64/93
s 4
f 30/15/74 24/7/73 35/11/94 38/17/95
s off
f 36/10/96 3/63/97 5/65/98 40/19/99
s 5
f 4/64/93 37/18/92 41/22/100 6/66/101
s 4
f 38/17/95 35/11/94 39/20/102 42/21/103
s off
f 40/19/104 5/65/105 7/67/106 44/23/107
s 5
f 6/66/101 41/22/100 45/26/108 8/68/109
s 4
f 42/21/103 39/20/102 43/24/110 46/25/111
s 7
f 44/23/112 7/67/113 9/69/114 48/27/115
s 5
f 8/68/109 45/26/108 49/30/116 10/70/117
s 4
f 46/25/111 43/24/110 47/28/118 50/29/119
s 7
f 48/27/115 9/69/114 11/71/120 52/31/121
s 5
f 10/70/117 49/30/116 53/34/122 12/72/123
s 4
f 50/29/119 47/28/118 51/32/124 54/33/125
s 7
f 52/31/121 11/71/120 13/73/126 56/35/127
s 5
f 12/72/123 53/34/122 57/38/128 14/74/129
s 4
f 54/33/125 51/32/124 55/36/130 58/37/131
s 7
f 56/35/127 13/73/126 15/75/132 60/39/133
s 5
f 14/74/129 57/38/128 61/42/134 16/76/135
s 4
f 58/37/131 55/36/130 59/40/136 62/41/137
s 7
f 60/39/133 15/75/132 17/77/138 64/43/139
s 5
f 16/76/135 61/42/134 65/46/140 18/78/141
s 4
f 62/41/137 59/40/136 63/44/142 66/45/143
s off
f 64/43/144 17/77/145 19/79/146 68/47/147
s 5
f 18/78/141 65/46/140 69/50/148 20/80/149
s 4
f 66/45/143 63/44/142 67/48/150 70/49/151
s 3
f 68/47/152 19/79/153 75/57/66 72/51/65
s 5
f 20/80/149 69/50/148 77/82/154 79/81/155
s 4
f 70/49/151 67/48/150 71/52/156 78/53/157
s 1
f 21/87/6 22/5/5 23/2/9
f 26/9/11 27/8/10 28/85/18
s 2
f 71/52/58 72/83/57 73/55/61
s 1
f 76/56/158 77/54/60 78/53/59
