# This file uses meters as units for non-parametric coordinates.

mtllib Floating piece 3.mtl
g default
v 450.000000 152.471558 -100.000000
v 450.000000 -72.635742 -100.000000
v 350.000000 -117.543457 -100.000000
v 350.000000 177.420288 -100.000000
v 250.000000 -99.247803 -100.000000
v 250.000000 150.808350 -100.000000
v 150.000000 -159.124756 -100.000000
v 150.000000 157.461304 -100.000000
v 50.000000 -140.828857 -100.000000
v 50.000000 180.746826 -100.000000
v -50.000000 -144.155518 -100.000000
v -50.000000 154.134888 -100.000000
v -150.000000 -180.746826 -100.000000
v -150.000000 85.941772 -100.000000
v -250.000000 -179.083618 -100.000000
v -250.000000 70.972656 -100.000000
v -350.000000 -152.471680 -100.000000
v -350.000000 74.299072 -100.000000
v -450.000000 -180.746826 -100.000000
v -450.000000 70.972778 -100.000000
v 550.000000 -20.452881 91.362274
v 541.779297 -22.408081 100.000000
v 543.363281 -30.708374 91.362274
v 450.000000 -72.635742 91.145493
v 450.000000 -63.781250 100.000000
v 542.808594 123.142456 91.396889
v 541.723633 114.805542 100.000000
v 550.000000 113.328369 91.396889
v 447.695312 144.311890 100.000000
v 450.000000 152.471558 91.525131
v 542.916016 123.108643 -100.000000
v 550.000000 113.440796 -100.000000
v 550.000000 -20.590088 -100.000000
v 543.488281 -30.652222 -100.000000
v 350.000000 -117.543457 91.525131
v 348.932617 -108.732666 100.000000
v 350.068359 168.668579 100.000000
v 350.000000 177.420288 91.525131
v 250.000000 -99.247803 91.525131
v 248.384766 -90.336792 100.000000
v 250.830078 142.259521 100.000000
v 250.000000 150.808350 91.525131
v 150.000000 -159.124756 91.525131
v 148.384766 -150.213745 100.000000
v 148.749023 149.050903 100.000000
v 150.000000 157.461304 91.525131
v 50.000000 -140.828857 91.525131
v 50.628906 -132.328369 100.000000
v 50.136719 172.013428 100.000000
v 50.000000 180.746826 91.525131
v -50.000000 -144.155518 91.525131
v -51.637695 -135.730469 100.000000
v -46.421875 146.317383 100.000000
v -50.000000 154.134888 91.525131
v -150.000000 -180.746826 91.525131
v -151.433594 -172.246948 100.000000
v -146.827148 77.847412 100.000000
v -150.000000 85.941772 91.525131
v -250.000000 -179.083618 91.525131
v -248.822266 -170.627197 100.000000
v -249.509766 62.476807 100.000000
v -250.000000 70.972656 91.525131
v -350.000000 -152.471680 91.525131
v -350.068359 -143.683716 100.000000
v -350.000000 65.819458 100.000000
v -350.000000 74.299072 91.525131
v -450.000000 -180.746826 91.525131
v -448.785156 -171.596191 100.000000
v -448.621094 62.539062 100.000000
v -450.000000 70.972778 91.525131
v -550.000000 -113.903564 91.429100
v -543.956055 -124.488770 91.333061
v -541.827148 -116.237427 100.000000
v -544.089844 -124.408569 -100.000000
v -550.000000 -113.981567 -100.000000
v -541.715820 34.866699 100.000000
v -542.791016 43.192627 91.463516
v -550.000000 33.509033 91.463516
v -550.000000 33.563354 -100.000000
v -542.842773 43.177002 -100.000000
vt 0.362865 0.746858
vt 0.361081 0.748331
vt 0.338536 0.743039
vt 0.338928 0.741657
vt 0.362636 0.748338
vt 0.378951 0.746251
vt 0.379360 0.747598
vt 0.359035 0.759814
vt 0.357531 0.759843
vt 0.355500 0.772268
vt 0.354282 0.772100
vt 0.380929 0.747256
vt 0.379392 0.723955
vt 0.380825 0.724034
vt 0.384418 0.758105
vt 0.383068 0.758471
vt 0.387371 0.769578
vt 0.386120 0.769683
vt 0.356856 0.783961
vt 0.355115 0.783818
vt 0.386905 0.781465
vt 0.385318 0.781555
vt 0.352617 0.796593
vt 0.351407 0.796485
vt 0.388287 0.793090
vt 0.386793 0.793321
vt 0.354357 0.808091
vt 0.352871 0.808244
vt 0.390386 0.804693
vt 0.389124 0.804724
vt 0.355137 0.820307
vt 0.353540 0.820204
vt 0.389162 0.816284
vt 0.387871 0.816048
vt 0.353561 0.832211
vt 0.352217 0.832186
vt 0.384951 0.829459
vt 0.383342 0.829099
vt 0.354413 0.843214
vt 0.353054 0.843411
vt 0.383963 0.841864
vt 0.382462 0.841798
vt 0.357205 0.854848
vt 0.355559 0.855013
vt 0.383772 0.854008
vt 0.382360 0.853967
vt 0.356228 0.866411
vt 0.355021 0.866569
vt 0.383089 0.865774
vt 0.381773 0.865624
vt 0.361210 0.877760
vt 0.359627 0.878016
vt 0.380798 0.876802
vt 0.379343 0.876831
vt 0.361561 0.879131
vt 0.380392 0.878165
vt 0.362468 0.901826
vt 0.337898 0.884079
vt 0.403302 0.880380
vt 0.403016 0.881788
vt 0.406462 0.753732
vt 0.335470 0.755236
vt 0.332521 0.768624
vt 0.409036 0.766311
vt 0.331376 0.780871
vt 0.410267 0.779403
vt 0.329794 0.795524
vt 0.411223 0.791677
vt 0.329879 0.807999
vt 0.412053 0.804462
vt 0.329903 0.820077
vt 0.411348 0.817777
vt 0.329794 0.833290
vt 0.408761 0.832655
vt 0.330655 0.845713
vt 0.407188 0.844506
vt 0.332115 0.858154
vt 0.406250 0.856449
vt 0.333952 0.871242
vt 0.405149 0.868652
vt 0.380043 0.901116
vt 0.379217 0.878277
vt 0.360206 0.879335
vt 0.338343 0.885439
vt 0.380378 0.746426
vt 0.403662 0.742358
vt 0.361580 0.746979
vt 0.363080 0.723566
vn 0.839538 -0.543301 0.000389
vn 0.839538 -0.543301 0.000389
vn 0.839538 -0.543301 0.000389
vn 0.839538 -0.543301 0.000389
vn 0.590406 -0.313418 0.743767
vn 0.723699 -0.010369 0.690037
vn 0.723417 0.011571 0.690315
vn 0.563073 0.318697 0.762484
vn 0.312626 -0.662996 0.680221
vn 0.298077 -0.664169 0.685587
vn 0.297445 -0.662718 0.687264
vn 0.094653 -0.692764 0.714926
vn 0.095001 -0.692733 0.714910
vn 0.806629 0.591058 0.000348
vn 0.806629 0.591058 0.000348
vn 0.806629 0.591058 0.000348
vn 0.806629 0.591058 0.000348
vn 0.230351 0.677435 0.698584
vn 0.192621 0.683656 0.703926
vn 0.192605 0.683657 0.703929
vn -0.006514 0.695614 0.718386
vn -0.006512 0.695614 0.718386
vn 0.138770 -0.669161 0.730046
vn 0.138762 -0.669162 0.730046
vn -0.068931 0.698968 0.711823
vn -0.068928 0.698968 0.711823
vn 0.140522 -0.668820 0.730023
vn 0.140531 -0.668818 0.730023
vn 0.104017 0.698234 0.708272
vn 0.104019 0.698234 0.708272
vn -0.051772 -0.703170 0.709135
vn -0.051772 -0.703169 0.709135
vn -0.010677 0.696279 0.717692
vn -0.010677 0.696279 0.717692
vn 0.136845 -0.689167 0.711563
vn 0.136847 -0.689166 0.711563
vn -0.301754 0.633888 0.712131
vn -0.301758 0.633886 0.712131
vn 0.121389 -0.690503 0.713071
vn 0.121391 -0.690503 0.713071
vn -0.267200 0.644936 0.716004
vn -0.267205 0.644934 0.716004
vn -0.099440 -0.697425 0.709725
vn -0.099441 -0.697425 0.709725
vn -0.041359 0.704429 0.708568
vn -0.041357 0.704429 0.708568
vn 0.004572 -0.694143 0.719823
vn 0.004565 -0.694143 0.719823
vn 0.000110 0.706910 0.707304
vn 0.000110 0.706910 0.707304
vn 0.192392 -0.680426 0.707111
vn 0.192392 -0.680426 0.707111
vn -0.112901 0.697688 0.707449
vn -0.112850 0.697695 0.707451
vn -0.368164 -0.615608 0.696766
vn -0.368164 -0.615608 0.696766
vn -0.612350 -0.280201 0.739266
vn -0.378705 -0.611393 0.694824
vn -0.219551 0.679238 0.700310
vn -0.570375 0.300943 0.764268
vn -0.721881 -0.008470 0.691965
vn -0.721404 0.010732 0.692432
vn -0.555592 -0.831455 0.000030
vn -0.999293 -0.037595 0.000023
vn -0.999285 -0.037811 0.000023
vn -0.555519 -0.831504 0.000030
vn -0.802124 0.597158 0.000169
vn -0.802124 0.597158 0.000169
vn -0.802124 0.597158 0.000169
vn -0.802124 0.597158 0.000169
vn 0.000000 0.000000 1.000000
vn 0.000000 0.000000 1.000000
vn 0.000000 0.000000 1.000000
vn 0.000000 0.000000 1.000000
vn 0.301328 0.953520 0.000000
vn 0.301328 0.953521 0.000000
vn 0.270982 0.962584 0.000000
vn 0.270970 0.962588 0.000000
vn 0.409665 -0.912236 -0.000000
vn 0.409665 -0.912236 -0.000000
vn 0.409665 -0.912236 -0.000000
vn 0.409665 -0.912236 -0.000000
vn -1.000000 0.000000 0.000000
vn -1.000000 0.000000 0.000000
vn 1.000000 0.000000 0.000000
vn 1.000000 0.000000 0.000000
vn 1.000000 0.000000 0.000000
vn 1.000000 0.000000 0.000000
vn 0.409665 -0.912236 0.000000
vn 0.409664 -0.912236 0.000000
vn -0.008316 0.999965 0.000000
vn -0.008316 0.999965 0.000000
vn 0.000000 0.000000 1.000000
vn 0.000000 0.000000 1.000000
vn -0.179969 -0.983672 0.000000
vn -0.179969 -0.983672 0.000000
vn -0.179969 -0.983672 0.000000
vn -0.179969 -0.983672 0.000000
vn -0.099302 0.995057 0.000000
vn -0.099302 0.995057 0.000000
vn 0.000000 0.000000 1.000000
vn 0.000000 0.000000 1.000000
vn 0.513719 -0.857958 0.000000
vn 0.513719 -0.857958 0.000000
vn 0.513719 -0.857958 0.000000
vn 0.513719 -0.857958 0.000000
vn 0.148043 0.988981 0.000000
vn 0.148043 0.988981 0.000000
vn 0.000000 0.000000 1.000000
vn 0.000000 0.000000 1.000000
vn -0.179972 -0.983672 0.000000
vn -0.074637 -0.997211 0.000000
vn -0.074637 -0.997211 0.000000
vn -0.179972 -0.983672 0.000000
vn -0.016630 0.999862 0.000000
vn -0.016630 0.999862 0.000000
vn 0.000000 0.000000 1.000000
vn 0.000000 0.000000 1.000000
vn 0.195729 -0.980658 0.000000
vn 0.195729 -0.980658 0.000000
vn -0.428338 0.903619 0.000000
vn -0.428338 0.903619 0.000000
vn 0.000000 0.000000 1.000000
vn 0.000000 0.000000 1.000000
vn 0.172037 -0.985091 0.000000
vn 0.172037 -0.985091 0.000000
vn -0.383942 0.923357 0.000000
vn -0.383942 0.923357 0.000000
vn 0.000000 0.000000 1.000000
vn 0.000000 0.000000 1.000000
vn -0.139984 -0.990154 0.000000
vn -0.139984 -0.990154 0.000000
vn -0.058115 0.998310 0.000000
vn -0.058115 0.998310 0.000000
vn -0.000000 0.000000 1.000000
vn -0.000000 0.000000 1.000000
vn -0.257169 -0.966367 0.000000
vn -0.257169 -0.966367 0.000000
vn 0.000001 1.000000 0.000000
vn 0.000001 1.000000 0.000000
vn -0.000000 0.000000 1.000000
vn -0.000000 0.000000 1.000000
vn 0.272084 -0.962274 0.000000
vn 0.272084 -0.962274 0.000000
vn 0.272084 -0.962274 0.000000
vn 0.272084 -0.962274 0.000000
vn -0.159296 0.987231 -0.000000
vn -0.159270 0.987235 -0.000000
vn 0.000000 0.000000 1.000000
vn 0.000000 0.000000 1.000000
vn -0.513720 -0.857958 -0.000000
vn -0.513720 -0.857958 -0.000000
vn -0.286807 0.957988 -0.000000
vn -0.286807 0.957988 -0.000000
vn 0.000000 0.000000 1.000000
vn 0.000000 0.000000 1.000000
s off
g Floating_piece_3
usemtl initialShadingGroup
f 21/87/1 23/2/2 34/3/3 33/4/4
s 1
f 22/5/5 21/1/6 28/6/7 27/7/8
f 23/2/9 22/5/5 25/8/10 24/9/11
f 24/9/11 25/8/10 36/10/12 35/11/13
s off
f 26/85/14 28/6/15 32/13/16 31/14/17
s 1
f 27/7/8 26/12/18 30/15/19 29/16/20
f 29/16/20 30/15/19 38/17/21 37/18/22
f 35/11/13 36/10/12 40/19/23 39/20/24
f 37/18/22 38/17/21 42/21/25 41/22/26
f 39/20/24 40/19/23 44/23/27 43/24/28
f 41/22/26 42/21/25 46/25/29 45/26/30
f 43/24/28 44/23/27 48/27/31 47/28/32
f 45/26/30 46/25/29 50/29/33 49/30/34
f 47/28/32 48/27/31 52/31/35 51/32/36
f 49/30/34 50/29/33 54/33/37 53/34/38
f 51/32/36 52/31/35 56/35/39 55/36/40
f 53/34/38 54/33/37 58/37/41 57/38/42
f 55/36/40 56/35/39 60/39/43 59/40/44
f 57/38/42 58/37/41 62/41/45 61/42/46
f 59/40/44 60/39/43 64/43/47 63/44/48
f 61/42/46 62/41/45 66/45/49 65/46/50
f 63/44/48 64/43/47 68/47/51 67/48/52
f 65/46/50 66/45/49 70/49/53 69/50/54
f 67/48/55 68/47/56 73/51/57 72/52/58
f 69/50/54 70/49/53 77/53/59 76/54/60
f 71/55/61 73/51/57 76/54/60 78/82/62
s 3
f 72/52/63 71/83/64 75/84/65 74/58/66
s off
f 78/56/67 77/53/68 80/59/69 79/60/70
s 4
f 22/5/71 27/7/72 29/16/73 25/8/74
s 5
f 26/12/75 31/86/76 1/61/77 30/15/78
s 6
f 34/3/79 23/2/80 24/9/81 2/62/82
s 3
f 71/55/64 78/82/83 79/81/84 75/57/65
s off
f 21/1/85 33/88/86 32/13/87 28/6/88
s 6
f 24/9/81 35/11/89 3/63/90 2/62/82
s 5
f 1/61/77 4/64/91 38/17/92 30/15/78
s 4
f 29/16/73 37/18/93 36/10/94 25/8/74
s off
f 35/11/95 39/20/96 5/65/97 3/63/98
s 5
f 4/64/91 6/66/99 42/21/100 38/17/92
s 4
f 37/18/93 41/22/101 40/19/102 36/10/94
s off
f 39/20/103 43/24/104 7/67/105 5/65/106
s 5
f 6/66/99 8/68/107 46/25/108 42/21/100
s 4
f 41/22/101 45/26/109 44/23/110 40/19/102
s 7
f 43/24/111 47/28/112 9/69/113 7/67/114
s 5
f 8/68/107 10/70/115 50/29/116 46/25/108
s 4
f 45/26/109 49/30/117 48/27/118 44/23/110
s 7
f 47/28/112 51/32/119 11/71/120 9/69/113
s 5
f 10/70/115 12/72/121 54/33/122 50/29/116
s 4
f 49/30/117 53/34/123 52/31/124 48/27/118
s 7
f 51/32/119 55/36/125 13/73/126 11/71/120
s 5
f 12/72/121 14/74/127 58/37/128 54/33/122
s 4
f 53/34/123 57/38/129 56/35/130 52/31/124
s 7
f 55/36/125 59/40/131 15/75/132 13/73/126
s 5
f 14/74/127 16/76/133 62/41/134 58/37/128
s 4
f 57/38/129 61/42/135 60/39/136 56/35/130
s 7
f 59/40/131 63/44/137 17/77/138 15/75/132
s 5
f 16/76/133 18/78/139 66/45/140 62/41/134
s 4
f 61/42/135 65/46/141 64/43/142 60/39/136
s off
f 63/44/143 67/48/144 19/79/145 17/77/146
s 5
f 18/78/139 20/80/147 70/49/148 66/45/140
s 4
f 65/46/141 69/50/149 68/47/150 64/43/142
s 3
f 67/48/151 72/52/63 74/58/66 19/79/152
s 5
f 20/80/147 80/59/153 77/53/154 70/49/148
s 4
f 69/50/149 76/54/155 73/51/156 68/47/150
s 1
f 21/87/6 22/5/5 23/2/9
f 26/85/18 27/7/8 28/6/7
f 71/83/61 72/52/58 73/51/57
f 76/54/60 77/53/59 78/56/62
