# This file uses meters as units for non-parametric coordinates.

mtllib Beginning level 2.mtl
g default
v 750.000000 -200.000000 200.000000
v 750.000000 200.000000 0.000000
v -750.000000 -200.000000 0.000000
v -750.000000 193.200684 193.200684
v -743.200684 193.200684 200.000000
v -743.200684 200.000000 193.200684
v 750.000000 200.000000 193.200684
v 750.000000 193.200684 200.000000
v -743.200684 -200.000000 200.000000
v -750.000000 -200.000000 193.200684
v -750.000000 193.200684 0.000000
v -743.200684 200.000000 0.000000
vt 0.528791 0.032505
vt 0.528018 0.033193
vt 0.513721 0.033194
vt 0.527966 0.018290
vt 0.528729 0.033193
vt 0.557783 0.032266
vt 0.557787 0.032998
vt 0.528729 0.143623
vt 0.528017 0.143623
vt 0.557822 0.143611
vt 0.513721 0.143626
vt 0.557414 0.017922
vt 0.528098 0.032646
vt 0.527258 0.018373
vn -0.707105 0.707109 0.000000
vn -0.707105 0.707109 0.000000
vn -0.707105 0.707109 0.000000
vn -0.707105 0.707109 0.000000
vn -0.707107 0.000000 0.707106
vn -0.707107 0.000000 0.707106
vn -0.707107 0.000000 0.707106
vn -0.707107 0.000000 0.707106
vn 0.000000 0.707108 0.707106
vn 0.000000 0.707108 0.707106
vn 0.000000 0.707108 0.707106
vn 0.000000 0.707108 0.707106
vn 0.000000 0.000000 1.000000
vn 0.000000 0.000000 1.000000
vn 0.000000 0.000000 1.000000
vn 0.000000 0.000000 1.000000
vn 0.000000 1.000000 0.000000
vn 0.000000 1.000000 0.000000
vn 0.000000 1.000000 0.000000
vn 0.000000 1.000000 0.000000
vn -1.000000 0.000000 0.000000
vn -1.000000 0.000000 0.000000
vn -1.000000 0.000000 0.000000
vn -1.000000 0.000000 0.000000
vn -0.577351 0.577348 0.577351
vn -0.577351 0.577348 0.577351
vn -0.577351 0.577348 0.577351
s off
g Beginning_Level_2
usemtl initialShadingGroup
f 4/1/1 6/13/2 12/14/3 11/4/4
f 5/5/5 4/1/6 10/6/7 9/7/8
f 6/2/9 5/5/10 8/8/11 7/9/12
f 5/5/13 9/7/14 1/10/15 8/8/16
f 6/2/17 7/9/18 2/11/19 12/3/20
f 3/12/21 10/6/22 4/1/23 11/4/24
f 4/1/25 5/5/26 6/13/27
