# This file uses meters as units for non-parametric coordinates.

mtllib Finish level 2.mtl
g default
v -2252.271484 -246.618057 100.000000
v -2252.271484 246.618057 -100.000000
v 2252.271484 -246.618057 -100.000000
v -2252.271484 240.618637 100.000000
v -2252.271484 246.618057 94.000587
v 2252.271484 -246.618057 97.000595
v 2249.271484 -246.618057 100.000000
v 2249.271484 240.618637 100.000000
v 2252.271484 243.618301 97.000290
v 2249.271484 246.618057 -100.000000
v 2252.271484 243.618637 -100.000000
v 2249.271484 246.618057 94.000587
vt 0.053547 0.197181
vt 0.053402 0.530142
vt 0.017373 0.529837
vt 0.017459 0.196880
vt 0.016830 0.196875
vt 0.016748 0.529794
vt 0.002441 0.530530
vt 0.002441 0.196766
vt 0.017148 0.530150
vt 0.053399 0.530456
vt 0.053280 0.545034
vt 0.017023 0.544729
vt 0.002476 0.530843
vt 0.017018 0.530088
vn 0.000000 0.000000 1.000000
vn 0.000000 0.000000 1.000000
vn 0.000000 0.000000 1.000000
vn 0.000000 0.000000 1.000000
vn 0.000000 1.000000 0.000000
vn 0.000000 1.000000 0.000000
vn 0.000000 1.000000 0.000000
vn 0.000000 1.000000 0.000000
vn 1.000000 0.000000 0.000000
vn 1.000000 0.000000 0.000000
vn 1.000000 0.000000 0.000000
vn 1.000000 0.000000 0.000000
vn 0.000000 0.707107 0.707107
vn 0.000000 0.707107 0.707107
vn 0.000000 0.707107 0.707107
vn 0.000000 0.707107 0.707107
vn 0.000000 0.707107 0.707107
vn 0.707054 0.000000 0.707159
vn 0.707054 0.000000 0.707159
vn 0.707054 0.000000 0.707159
vn 0.707054 0.000000 0.707159
vn 0.707059 0.707155 0.000001
vn 0.707059 0.707155 0.000001
vn 0.707059 0.707155 0.000001
vn 0.707059 0.707155 0.000001
s off
g Finish_Level_2
usemtl initialShadingGroup
f 1/1/1 7/2/2 8/3/3 4/4/4
f 5/5/5 12/6/6 10/7/7 2/8/8
f 9/9/9 6/10/10 3/11/11 11/12/12
f 5/5/13 4/4/14 8/3/15 9/14/16 12/6/17
f 7/2/18 6/10/19 9/9/20 8/3/21
f 11/13/22 10/7/23 12/6/24 9/14/25
