# This file uses meters as units for non-parametric coordinates.

mtllib floating piece 1.mtl
g default
v -1179.631836 -67.999878 -99.999496
v -1079.631836 64.837280 -99.999496
v -1179.631836 -235.601929 -99.999496
v -1079.631836 -334.331909 -99.999496
v -979.632812 -378.048706 -99.999496
v -979.632812 96.638306 -99.999496
v -879.632812 -391.428833 -99.999496
v -879.632812 128.265747 -99.999496
v -779.632812 -410.755493 -99.999496
v -779.632812 140.916626 -99.999496
v -679.632812 -464.275513 -99.999496
v -679.632812 161.474731 -99.999496
v -579.632812 -476.168823 -99.999496
v -579.632812 224.729858 -99.999496
v -479.632812 -453.868774 -99.999496
v -479.632812 287.984985 -99.999496
v -379.632812 -418.188843 -99.999496
v -379.632812 362.309692 -99.999496
v -279.632812 -401.835571 -99.999496
v -279.632812 405.006958 -99.999496
v -179.632812 -389.942261 -99.999496
v -179.632812 452.448364 -99.999496
v -79.632812 -312.635620 -99.999496
v -79.632812 442.960083 -99.999496
v 20.367188 -214.515991 -99.999496
v 20.367188 414.495239 -99.999496
v 120.367188 -144.642944 -99.999496
v 120.367188 387.611694 -99.999496
v 220.367188 -80.716187 -99.999496
v 220.367188 393.937378 -99.999496
v 320.367188 -71.796265 -99.999496
v 320.367188 444.541382 -99.999496
v 420.367188 -92.609741 -99.999496
v 420.367188 476.169067 -99.999496
v 520.367188 -12.328979 -99.999496
v 520.367188 428.727661 -99.999496
v 620.367188 -15.303589 -100.000504
v 620.367188 371.797974 -100.000504
v 720.367188 -49.231323 -100.000504
v 720.367188 276.797974 -100.000504
v 820.367188 12.629517 -100.000504
v 820.367188 191.520874 -100.000504
v 920.367188 34.768677 -100.000504
v 920.367188 174.125610 -100.000504
v 1020.367188 20.536255 -100.000504
v 1020.367188 134.591187 -100.000504
v 1120.367188 14.210571 -100.000504
v 1120.367188 82.405640 -100.000504
v 1179.634766 14.210571 -100.000504
v 1179.634766 47.993042 -100.000504
v -1168.913086 -231.121948 100.000504
v -1179.631836 -235.601929 89.281799
v -1073.515625 -325.307251 100.000504
v -1079.631836 -334.331909 89.281799
v -1168.913086 -71.583496 100.000504
v -1179.631836 -67.999878 89.281799
v -1079.631836 64.837280 89.281799
v -1073.125000 55.658936 100.000504
v -976.718750 -367.624390 100.000504
v -979.632812 -378.048706 89.281799
v -979.632812 96.638306 89.029495
v -979.632812 85.667236 100.000504
v -877.904297 -380.845947 100.000504
v -879.632812 -391.428833 89.281799
v -879.632812 128.265747 89.281799
v -877.325195 117.753540 100.000504
v -776.005859 -400.539429 100.000504
v -779.632812 -410.755493 89.281799
v -779.632812 140.916626 89.281799
v -777.878906 130.334473 100.000504
v -676.358398 -453.870728 100.000504
v -679.632812 -464.275513 89.281799
v -679.632812 161.474731 89.281799
v -675.556641 151.369751 100.000504
v -580.181641 -465.309326 100.000504
v -579.632812 -476.168823 89.281799
v -579.632812 224.729858 88.422775
v -579.632812 213.152100 100.000504
v -482.611328 -443.551147 100.000504
v -479.632812 -453.868774 89.281799
v -479.632812 287.984985 89.281799
v -473.562500 279.141846 100.000504
v -382.320312 -407.767334 100.000504
v -379.632812 -418.188843 89.281799
v -379.632812 362.309692 89.281799
v -374.256836 352.950073 100.000504
v -281.130859 -391.219604 100.000504
v -279.632812 -401.835571 89.281799
v -279.632812 405.006958 89.281799
v -275.229492 395.232178 100.000504
v -183.842773 -379.648804 100.000504
v -179.632812 -389.942261 89.281799
v -179.632812 452.448364 89.281799
v -177.706055 441.498657 100.000504
v -86.688477 -304.542114 100.000504
v -79.632812 -312.635620 89.281799
v -79.632812 442.960083 89.281799
v -81.623047 432.382080 100.000504
v 13.496094 -206.240479 100.000504
v 20.367188 -214.515991 89.281799
v 20.367188 414.495239 89.096634
v 20.367188 403.591064 100.000504
v 114.408203 -135.730469 100.000504
v 120.367188 -144.642944 89.281799
v 120.367188 387.611694 89.281799
v 119.285156 376.803101 100.000504
v 216.802734 -70.272827 100.000504
v 220.367188 -80.716187 89.281799
v 220.367188 393.937378 89.281799
v 223.242188 383.379150 100.000504
v 320.996094 -60.978882 100.000504
v 320.367188 -71.796265 89.281799
v 320.367188 444.541382 89.281799
v 324.429688 434.584229 100.000504
v 417.599609 -81.085449 100.000504
v 420.367188 -92.609741 89.281799
v 420.367188 476.169067 89.281799
v 419.580078 464.678345 100.000504
v 516.736328 -1.497559 100.000504
v 520.367188 -12.328979 89.281799
v 520.367188 428.727661 89.281799
v 515.412109 419.214844 100.000504
v 622.291016 -4.637329 100.000504
v 620.367188 -15.303589 89.281799
v 620.367188 371.797974 89.281799
v 613.931641 363.128418 100.000504
v 719.025391 -37.457397 100.000504
v 720.367188 -49.231323 89.281799
v 720.367188 276.797974 89.281799
v 713.193359 268.828735 100.000504
v 816.275391 22.701782 100.000504
v 820.367188 12.629517 89.281799
v 820.367188 191.520874 89.281799
v 815.642578 181.463135 100.000504
v 919.951172 45.654663 100.000504
v 920.367188 34.768677 89.281799
v 920.367188 174.125610 89.281799
v 917.447266 163.753784 100.000504
v 1021.462891 31.207153 100.000504
v 1020.367188 20.536255 89.281799
v 1020.367188 134.591187 89.281799
v 1015.904297 124.829224 100.000504
v 1120.705078 24.929321 100.000504
v 1120.367188 14.210571 89.281799
v 1120.367188 82.405640 89.281799
v 1115.193359 73.014893 100.000504
v 1168.916016 24.929321 100.000504
v 1179.634766 14.210571 89.281799
v 1179.634766 47.993042 89.281799
v 1168.916016 41.822144 100.000504
vt 0.950344 0.352933
vt 0.950356 0.351781
vt 0.959152 0.357380
vt 0.958442 0.358100
vt 0.938666 0.356241
vt 0.937654 0.355425
vt 0.964202 0.363241
vt 0.963342 0.363854
vt 0.932729 0.365929
vt 0.931784 0.365646
vt 0.932167 0.373121
vt 0.931032 0.373256
vt 0.967769 0.369628
vt 0.966748 0.370234
vt 0.931712 0.380968
vt 0.930645 0.380930
vt 0.971377 0.376042
vt 0.970305 0.376753
vt 0.932214 0.388457
vt 0.931045 0.388457
vt 0.976191 0.382215
vt 0.975285 0.382700
vt 0.932391 0.396434
vt 0.931108 0.396298
vt 0.978878 0.388626
vt 0.977884 0.388923
vt 0.930633 0.404871
vt 0.929432 0.405132
vt 0.980115 0.395708
vt 0.979007 0.395862
vt 0.929098 0.414036
vt 0.927952 0.413841
vt 0.980634 0.403304
vt 0.979393 0.403412
vt 0.927222 0.422723
vt 0.926173 0.422674
vt 0.981690 0.410612
vt 0.980537 0.410763
vt 0.927182 0.430519
vt 0.926044 0.430508
vt 0.982679 0.417743
vt 0.981714 0.417772
vt 0.927098 0.438241
vt 0.926141 0.438387
vt 0.980816 0.426483
vt 0.979772 0.426270
vt 0.929570 0.444722
vt 0.928570 0.445023
vt 0.977415 0.436108
vt 0.976276 0.435821
vt 0.933122 0.451340
vt 0.931948 0.451615
vt 0.975258 0.445082
vt 0.974131 0.444892
vt 0.936708 0.457824
vt 0.935471 0.458272
vt 0.973582 0.454112
vt 0.972248 0.454051
vt 0.938820 0.465204
vt 0.937508 0.465404
vt 0.974532 0.461829
vt 0.973340 0.462071
vt 0.938869 0.473170
vt 0.937818 0.473376
vt 0.976749 0.468936
vt 0.975875 0.469007
vt 0.939884 0.480103
vt 0.939014 0.480502
vt 0.974895 0.478350
vt 0.973553 0.478229
vt 0.944060 0.485824
vt 0.943182 0.486485
vt 0.976120 0.486114
vt 0.974967 0.486453
vt 0.949016 0.491783
vt 0.948218 0.492510
vt 0.978440 0.493331
vt 0.977515 0.493470
vt 0.956339 0.497902
vt 0.955568 0.498772
vt 0.977206 0.501768
vt 0.975947 0.501643
vt 0.963869 0.504700
vt 0.962838 0.505500
vt 0.977877 0.509566
vt 0.976667 0.509726
vt 0.967774 0.511627
vt 0.966834 0.512214
vt 0.979887 0.517051
vt 0.978838 0.517301
vt 0.972172 0.518026
vt 0.971287 0.518691
vt 0.981478 0.524400
vt 0.980419 0.524596
vt 0.976982 0.524697
vt 0.976129 0.525380
vt 0.982210 0.528761
vt 0.980998 0.528144
vt 0.979785 0.528333
vt 0.979487 0.529518
vt 0.918921 0.362680
vt 0.923533 0.350127
vt 0.946669 0.338243
vt 0.969186 0.347916
vt 0.975010 0.354852
vt 0.917628 0.371099
vt 0.979603 0.361665
vt 0.916864 0.379449
vt 0.983953 0.368573
vt 0.916705 0.387299
vt 0.988655 0.376714
vt 0.916490 0.394910
vt 0.991765 0.384628
vt 0.915332 0.403652
vt 0.993717 0.392957
vt 0.913968 0.412500
vt 0.994927 0.401552
vt 0.912584 0.422168
vt 0.995781 0.409853
vt 0.912278 0.431091
vt 0.995902 0.418317
vt 0.912978 0.440209
vt 0.994145 0.428357
vt 0.915068 0.448337
vt 0.991270 0.438397
vt 0.918270 0.455807
vt 0.989326 0.446733
vt 0.921237 0.462914
vt 0.988479 0.454540
vt 0.923376 0.469703
vt 0.988942 0.461341
vt 0.924990 0.477693
vt 0.989634 0.468823
vt 0.927243 0.485706
vt 0.989563 0.477618
vt 0.931565 0.493773
vt 0.990432 0.484599
vt 0.937239 0.501015
vt 0.991442 0.492478
vt 0.944767 0.508444
vt 0.991536 0.500732
vt 0.951488 0.515086
vt 0.992311 0.507758
vt 0.955736 0.520687
vt 0.993726 0.514893
vt 0.960224 0.527098
vt 0.995136 0.522161
vt 0.965111 0.533856
vt 0.995902 0.526496
vt 0.981613 0.543442
vt 0.979216 0.529395
vt 0.968184 0.537929
vt 0.984098 0.543062
vt 0.981968 0.529138
vt 0.950806 0.351670
vt 0.960753 0.341072
vt 0.934570 0.341513
vt 0.938138 0.355195
vn -0.496789 -0.503180 0.707114
vn -0.496789 -0.503180 0.707114
vn -0.406411 -0.571394 0.712979
vn -0.406406 -0.571397 0.712979
vn -0.707105 0.000000 0.707108
vn -0.707105 0.000000 0.707108
vn -0.652810 0.217656 0.725579
vn -0.652810 0.217657 0.725579
vn -0.192681 -0.676751 0.710550
vn -0.192680 -0.676752 0.710550
vn -0.441184 0.535785 0.719924
vn -0.440994 0.535936 0.719928
vn -0.216384 0.682022 0.698587
vn -0.216220 0.682061 0.698600
vn -0.114252 -0.697667 0.707253
vn -0.114251 -0.697667 0.707253
vn -0.154223 0.693030 0.704219
vn -0.154293 0.693019 0.704215
vn -0.240070 -0.660846 0.711090
vn -0.240068 -0.660847 0.711090
vn -0.115974 0.697267 0.707367
vn -0.115975 0.697267 0.707367
vn -0.218988 -0.665838 0.713235
vn -0.218989 -0.665838 0.713235
vn -0.277577 0.661014 0.697145
vn -0.278017 0.660888 0.697090
vn 0.036901 -0.701054 0.712153
vn 0.036904 -0.701054 0.712153
vn -0.393606 0.622044 0.676858
vn -0.393402 0.622134 0.676893
vn 0.196984 -0.678419 0.707775
vn 0.196985 -0.678419 0.707775
vn -0.407867 0.594917 0.692617
vn -0.407819 0.595008 0.692567
vn 0.177538 -0.682968 0.708544
vn 0.177537 -0.682969 0.708544
vn -0.355910 0.608165 0.709552
vn -0.355911 0.608165 0.709552
vn 0.099024 -0.700057 0.707187
vn 0.099024 -0.700057 0.707187
vn -0.290466 0.644616 0.707177
vn -0.290466 0.644616 0.707177
vn 0.282680 -0.633970 0.719844
vn 0.282680 -0.633969 0.719844
vn -0.130093 0.681800 0.719878
vn -0.130092 0.681800 0.719878
vn 0.466109 -0.530920 0.707719
vn 0.466109 -0.530920 0.707719
vn 0.133316 0.696523 0.705041
vn 0.133374 0.696515 0.705038
vn 0.453926 -0.540577 0.708327
vn 0.453928 -0.540576 0.708327
vn 0.189679 0.687865 0.700617
vn 0.190899 0.687614 0.700532
vn 0.393091 -0.587677 0.707189
vn 0.393091 -0.587677 0.707189
vn 0.071155 0.701887 0.708726
vn 0.071245 0.701880 0.708723
vn 0.237774 -0.655001 0.717243
vn 0.237779 -0.654999 0.717243
vn -0.190640 0.673310 0.714360
vn -0.190636 0.673311 0.714360
vn -0.039780 -0.702134 0.710932
vn -0.039775 -0.702134 0.710932
vn -0.269258 0.652580 0.708265
vn -0.269257 0.652580 0.708265
vn -0.144087 -0.692275 0.707103
vn -0.144087 -0.692275 0.707103
vn 0.054157 0.679131 0.732017
vn 0.054175 0.679129 0.732017
vn 0.442658 -0.551386 0.707126
vn 0.442658 -0.551386 0.707126
vn 0.243110 -0.639906 0.728984
vn 0.243129 -0.639899 0.728984
vn 0.327188 0.626585 0.707346
vn 0.327188 0.626586 0.707346
vn -0.125318 -0.691917 0.711018
vn -0.125321 -0.691916 0.711018
vn 0.426309 0.560924 0.709666
vn 0.426304 0.560928 0.709666
vn -0.227187 -0.669616 0.707107
vn -0.227187 -0.669616 0.707107
vn 0.473241 0.525238 0.707225
vn 0.473241 0.525238 0.707225
vn 0.371998 -0.601349 0.707104
vn 0.371998 -0.601349 0.707104
vn 0.270120 -0.648048 0.712088
vn 0.270114 -0.648051 0.712088
vn 0.317429 0.617685 0.719516
vn 0.317431 0.617685 0.719516
vn 0.028388 -0.700776 0.712816
vn 0.028381 -0.700776 0.712816
vn 0.192497 0.678474 0.708956
vn 0.192501 0.678473 0.708956
vn -0.072431 -0.703113 0.707379
vn -0.072430 -0.703114 0.707379
vn 0.294624 0.642261 0.707600
vn 0.294626 0.642260 0.707600
vn -0.029024 -0.706349 0.707269
vn -0.029025 -0.706349 0.707269
vn 0.337436 0.621294 0.707199
vn 0.337437 0.621293 0.707199
vn 0.000000 -0.707106 0.707108
vn 0.000000 -0.707106 0.707108
vn 0.355053 0.611499 0.707112
vn 0.355053 0.611499 0.707111
vn 0.707106 0.000000 0.707108
vn 0.707106 0.000000 0.707108
vn 0.707106 0.000000 0.707108
vn 0.707106 0.000000 0.707108
vn 0.000000 0.000000 1.000000
vn -0.000000 0.000000 1.000000
vn -0.000000 0.000000 1.000000
vn 0.000000 0.000000 1.000000
vn -0.798924 0.601432 0.000000
vn -0.798924 0.601432 0.000000
vn -0.798924 0.601432 0.000000
vn -0.798924 0.601432 0.000000
vn -0.702573 -0.711611 0.000000
vn -0.580133 -0.814522 0.000000
vn -0.580133 -0.814522 0.000000
vn -0.702573 -0.711611 0.000000
vn -1.000000 0.000000 0.000000
vn -1.000000 0.000000 0.000000
vn -1.000000 0.000000 0.000000
vn -1.000000 0.000000 0.000000
vn -0.274518 -0.961582 0.000000
vn -0.274518 -0.961582 0.000000
vn -0.303058 0.952972 0.000000
vn -0.303058 0.952972 0.000000
vn -0.302305 0.953211 0.000000
vn -0.302305 0.953211 0.000000
vn 0.000000 0.000000 1.000000
vn 0.000000 0.000000 1.000000
vn -0.161390 -0.986891 0.000000
vn -0.161390 -0.986891 0.000000
vn -0.216060 0.976380 0.000000
vn -0.216128 0.976365 0.000000
vn 0.000000 0.000000 1.000000
vn 0.000000 0.000000 1.000000
vn -0.342239 -0.939613 0.000000
vn -0.342239 -0.939613 0.000000
vn -0.163802 0.986493 0.000000
vn -0.163802 0.986493 0.000000
vn 0.000000 0.000000 1.000000
vn 0.000000 0.000000 1.000000
vn -0.310862 -0.950455 0.000000
vn -0.310862 -0.950455 0.000000
vn -0.385922 0.922532 0.000000
vn -0.386310 0.922369 0.000000
vn 0.000000 0.000000 1.000000
vn 0.000000 0.000000 1.000000
vn 0.051963 -0.998649 0.000000
vn 0.051963 -0.998649 0.000000
vn -0.534580 0.845118 0.000000
vn -0.534580 0.845118 0.000000
vn 0.000000 0.000000 1.000000
vn 0.000000 0.000000 1.000000
vn 0.278436 -0.960455 0.000000
vn 0.278436 -0.960455 0.000000
vn -0.566859 0.823815 0.000000
vn -0.566787 0.823864 0.000000
vn 0.000000 0.000000 1.000000
vn 0.000000 0.000000 1.000000
vn 0.251784 -0.967783 0.000000
vn 0.251784 -0.967783 0.000000
vn -0.505015 0.863111 0.000000
vn -0.505015 0.863111 0.000000
vn -0.000000 0.000000 1.000000
vn -0.000000 0.000000 1.000000
vn 0.139845 -0.990173 0.000000
vn 0.139845 -0.990173 0.000000
vn -0.410890 0.911685 0.000000
vn -0.410890 0.911685 0.000000
vn 0.000000 0.000000 1.000000
vn 0.000000 0.000000 1.000000
vn 0.118101 -0.993002 0.000000
vn 0.118101 -0.993002 0.000000
vn -0.428625 0.903483 0.000000
vn -0.428625 0.903483 0.000000
vn 0.000000 0.000000 1.000000
vn 0.000000 0.000000 1.000000
vn 0.611615 -0.791155 0.000000
vn 0.611615 -0.791155 0.000000
vn 0.659412 -0.751782 0.000000
vn 0.659412 -0.751782 0.000000
vn 0.094459 0.995529 0.000000
vn 0.094459 0.995529 0.000000
vn 0.186365 0.982481 0.000000
vn 0.186416 0.982471 0.000000
vn 0.000000 0.000000 1.000000
vn 0.000000 0.000000 1.000000
vn 0.643176 -0.765719 0.000000
vn 0.643176 -0.765719 0.000000
vn 0.266717 0.963775 0.000000
vn 0.266717 0.963775 0.000000
vn 0.000000 0.000000 1.000000
vn 0.000000 0.000000 1.000000
vn 0.556041 -0.831155 0.000000
vn 0.556041 -0.831155 0.000000
vn 0.102117 0.994772 0.000000
vn 0.102211 0.994763 0.000000
vn 0.000000 0.000000 1.000000
vn 0.000000 0.000000 1.000000
vn 0.342239 -0.939613 0.000000
vn 0.342239 -0.939613 0.000000
vn -0.273773 0.961794 0.000000
vn -0.273773 0.961794 0.000000
vn -0.000000 0.000000 1.000000
vn -0.000000 0.000000 1.000000
vn -0.059363 -0.998236 0.000000
vn -0.059363 -0.998236 0.000000
vn -0.380270 0.924875 0.000000
vn -0.380270 0.924875 0.000000
vn 0.000000 0.000000 1.000000
vn 0.000000 0.000000 1.000000
vn -0.203768 -0.979019 0.000000
vn -0.203768 -0.979019 0.000000
vn -0.301554 0.953449 0.000000
vn -0.301554 0.953449 0.000000
vn 0.000000 0.000000 1.000000
vn 0.000000 0.000000 1.000000
vn 0.626029 -0.779800 0.000000
vn 0.626029 -0.779800 0.000000
vn 0.626029 -0.779800 0.000000
vn 0.626029 -0.779800 0.000000
vn 0.428625 0.903483 0.000000
vn 0.428625 0.903483 0.000000
vn 0.462647 0.886542 0.000000
vn 0.462647 0.886542 0.000000
vn -0.000000 0.000000 1.000000
vn -0.000000 0.000000 1.000000
vn -0.029733 -0.999558 0.000000
vn -0.029733 -0.999558 0.000000
vn -0.181450 -0.983400 0.000000
vn -0.181449 -0.983400 0.000000
vn 0.604906 0.796297 0.000000
vn 0.604906 0.796297 0.000000
vn 0.000000 0.000000 1.000000
vn 0.000000 0.000000 1.000000
vn -0.321289 -0.946981 0.000000
vn -0.321289 -0.946981 0.000000
vn 0.669533 0.742782 0.000000
vn 0.669533 0.742782 0.000000
vn 0.000000 0.000000 1.000000
vn 0.000000 0.000000 1.000000
vn 0.526085 -0.850432 0.000000
vn 0.526085 -0.850432 0.000000
vn 0.387233 -0.921982 0.000000
vn 0.387233 -0.921982 0.000000
vn 0.648872 0.760898 0.000000
vn 0.648872 0.760898 0.000000
vn 0.000000 0.000000 1.000000
vn 0.000000 0.000000 1.000000
vn 0.039503 -0.999219 0.000000
vn 0.039503 -0.999219 0.000000
vn 0.171379 0.985205 0.000000
vn 0.171379 0.985205 0.000000
vn 0.273773 0.961794 0.000000
vn 0.273773 0.961794 0.000000
vn 0.000000 0.000000 1.000000
vn 0.000000 0.000000 1.000000
vn -0.102252 -0.994759 0.000000
vn -0.102252 -0.994759 0.000000
vn 0.416855 0.908973 0.000000
vn 0.416855 0.908973 0.000000
vn 0.000000 0.000000 1.000000
vn 0.000000 0.000000 1.000000
vn -0.039686 -0.999212 0.000000
vn -0.039686 -0.999212 0.000000
vn 0.477682 0.878533 0.000000
vn 0.477682 0.878533 0.000000
vn -0.000000 0.000000 1.000000
vn -0.000000 0.000000 1.000000
vn 0.000000 -1.000000 0.000000
vn 0.000000 -1.000000 0.000000
vn 0.502127 0.864794 0.000000
vn 0.502127 0.864794 0.000000
vn 0.000000 0.000000 1.000000
vn 0.000000 0.000000 1.000000
vn 1.000000 0.000000 0.000000
vn 1.000000 0.000000 0.000000
vn 1.000000 0.000000 0.000000
vn 1.000000 0.000000 0.000000
s 1
g floatinf_piece_1
usemtl initialShadingGroup
f 51/1/1 52/155/2 54/3/3 53/4/4
s 2
f 52/2/5 51/1/6 55/5/7 56/158/8
s 1
f 53/4/4 54/3/3 60/7/9 59/8/10
s 2
f 56/6/8 55/5/7 58/9/11 57/10/12
f 57/10/12 58/9/11 62/11/13 61/12/14
s 1
f 59/8/10 60/7/9 64/13/15 63/14/16
s 2
f 61/12/14 62/11/13 66/15/17 65/16/18
s 1
f 63/14/16 64/13/15 68/17/19 67/18/20
s 2
f 65/16/18 66/15/17 70/19/21 69/20/22
s 1
f 67/18/20 68/17/19 72/21/23 71/22/24
s 2
f 69/20/22 70/19/21 74/23/25 73/24/26
s 1
f 71/22/24 72/21/23 76/25/27 75/26/28
s 2
f 73/24/26 74/23/25 78/27/29 77/28/30
s 1
f 75/26/28 76/25/27 80/29/31 79/30/32
s 2
f 77/28/30 78/27/29 82/31/33 81/32/34
s 1
f 79/30/32 80/29/31 84/33/35 83/34/36
s 2
f 81/32/34 82/31/33 86/35/37 85/36/38
s 1
f 83/34/36 84/33/35 88/37/39 87/38/40
s 2
f 85/36/38 86/35/37 90/39/41 89/40/42
s 1
f 87/38/40 88/37/39 92/41/43 91/42/44
s 2
f 89/40/42 90/39/41 94/43/45 93/44/46
s 1
f 91/42/44 92/41/43 96/45/47 95/46/48
s 2
f 93/44/46 94/43/45 98/47/49 97/48/50
s 1
f 95/46/48 96/45/47 100/49/51 99/50/52
s 2
f 97/48/50 98/47/49 102/51/53 101/52/54
s 1
f 99/50/52 100/49/51 104/53/55 103/54/56
s 2
f 101/52/54 102/51/53 106/55/57 105/56/58
s 1
f 103/54/56 104/53/55 108/57/59 107/58/60
s 2
f 105/56/58 106/55/57 110/59/61 109/60/62
s 1
f 107/58/60 108/57/59 112/61/63 111/62/64
s 2
f 109/60/62 110/59/61 114/63/65 113/64/66
s 1
f 111/62/64 112/61/63 116/65/67 115/66/68
s 2
f 113/64/66 114/63/65 118/67/69 117/68/70
s 3
f 115/66/71 116/65/72 120/69/73 119/70/74
s 2
f 117/68/70 118/67/69 122/71/75 121/72/76
s 3
f 119/70/74 120/69/73 124/73/77 123/74/78
s 2
f 121/72/76 122/71/75 126/75/79 125/76/80
s 3
f 123/74/78 124/73/77 128/77/81 127/78/82
s 2
f 125/76/80 126/75/79 130/79/83 129/80/84
s 4
f 127/78/85 128/77/86 132/81/87 131/82/88
s 2
f 129/80/84 130/79/83 134/83/89 133/84/90
s 4
f 131/82/88 132/81/87 136/85/91 135/86/92
s 2
f 133/84/90 134/83/89 138/87/93 137/88/94
s 4
f 135/86/92 136/85/91 140/89/95 139/90/96
s 2
f 137/88/94 138/87/93 142/91/97 141/92/98
s 4
f 139/90/96 140/89/95 144/93/99 143/94/100
s 2
f 141/92/98 142/91/97 146/95/101 145/96/102
s 4
f 143/94/100 144/93/99 148/97/103 147/98/104
s 2
f 145/96/102 146/95/101 150/99/105 149/151/106
s off
f 147/98/107 148/154/108 149/100/109 150/99/110
s 5
f 51/1/111 53/4/112 58/9/113 55/5/114
s off
f 56/6/115 57/10/116 2/101/117 1/102/118
s 6
f 3/156/119 4/104/120 54/3/121 52/155/122
s off
f 3/103/123 52/2/124 56/158/125 1/157/126
s 6
f 54/3/121 4/104/120 5/105/127 60/7/128
s 7
f 2/101/129 57/10/130 61/12/131 6/106/132
s 5
f 58/9/113 53/4/112 59/8/133 62/11/134
s 6
f 60/7/128 5/105/127 7/107/135 64/13/136
s 7
f 6/106/132 61/12/131 65/16/137 8/108/138
s 5
f 62/11/134 59/8/133 63/14/139 66/15/140
s 6
f 64/13/136 7/107/135 9/109/141 68/17/142
s 7
f 8/108/138 65/16/137 69/20/143 10/110/144
s 5
f 66/15/140 63/14/139 67/18/145 70/19/146
s 6
f 68/17/142 9/109/141 11/111/147 72/21/148
s 7
f 10/110/144 69/20/143 73/24/149 12/112/150
s 5
f 70/19/146 67/18/145 71/22/151 74/23/152
s 6
f 72/21/148 11/111/147 13/113/153 76/25/154
s 7
f 12/112/150 73/24/149 77/28/155 14/114/156
s 5
f 74/23/152 71/22/151 75/26/157 78/27/158
s 6
f 76/25/154 13/113/153 15/115/159 80/29/160
s 7
f 14/114/156 77/28/155 81/32/161 16/116/162
s 5
f 78/27/158 75/26/157 79/30/163 82/31/164
s 6
f 80/29/160 15/115/159 17/117/165 84/33/166
s 7
f 16/116/162 81/32/161 85/36/167 18/118/168
s 5
f 82/31/164 79/30/163 83/34/169 86/35/170
s 6
f 84/33/166 17/117/165 19/119/171 88/37/172
s 7
f 18/118/168 85/36/167 89/40/173 20/120/174
s 5
f 86/35/170 83/34/169 87/38/175 90/39/176
s 6
f 88/37/172 19/119/171 21/121/177 92/41/178
s 7
f 20/120/174 89/40/173 93/44/179 22/122/180
s 5
f 90/39/176 87/38/175 91/42/181 94/43/182
s 8
f 92/41/183 21/121/184 23/123/185 96/45/186
s 9
f 22/122/187 93/44/188 97/48/189 24/124/190
s 5
f 94/43/182 91/42/181 95/46/191 98/47/192
s 8
f 96/45/186 23/123/185 25/125/193 100/49/194
s 9
f 24/124/190 97/48/189 101/52/195 26/126/196
s 5
f 98/47/192 95/46/191 99/50/197 102/51/198
s 8
f 100/49/194 25/125/193 27/127/199 104/53/200
s 9
f 26/126/196 101/52/195 105/56/201 28/128/202
s 5
f 102/51/198 99/50/197 103/54/203 106/55/204
s 8
f 104/53/200 27/127/199 29/129/205 108/57/206
s 9
f 28/128/202 105/56/201 109/60/207 30/130/208
s 5
f 106/55/204 103/54/203 107/58/209 110/59/210
s 8
f 108/57/206 29/129/205 31/131/211 112/61/212
s 9
f 30/130/208 109/60/207 113/64/213 32/132/214
s 5
f 110/59/210 107/58/209 111/62/215 114/63/216
s 8
f 112/61/212 31/131/211 33/133/217 116/65/218
s 9
f 32/132/214 113/64/213 117/68/219 34/134/220
s 5
f 114/63/216 111/62/215 115/66/221 118/67/222
s off
f 116/65/223 33/133/224 35/135/225 120/69/226
s 10
f 34/134/227 117/68/228 121/72/229 36/136/230
s 5
f 118/67/222 115/66/221 119/70/231 122/71/232
s 11
f 120/69/233 35/135/234 37/137/235 124/73/236
s 10
f 36/136/230 121/72/229 125/76/237 38/138/238
s 5
f 122/71/232 119/70/231 123/74/239 126/75/240
s 11
f 124/73/236 37/137/235 39/139/241 128/77/242
s 10
f 38/138/238 125/76/237 129/80/243 40/140/244
s 5
f 126/75/240 123/74/239 127/78/245 130/79/246
s 12
f 128/77/247 39/139/248 41/141/249 132/81/250
s 10
f 40/140/244 129/80/243 133/84/251 42/142/252
s 5
f 130/79/246 127/78/245 131/82/253 134/83/254
s 12
f 132/81/250 41/141/249 43/143/255 136/85/256
s 13
f 42/142/257 133/84/258 137/88/259 44/144/260
s 5
f 134/83/254 131/82/253 135/86/261 138/87/262
s 12
f 136/85/256 43/143/255 45/145/263 140/89/264
s 13
f 44/144/260 137/88/259 141/92/265 46/146/266
s 5
f 138/87/262 135/86/261 139/90/267 142/91/268
s 12
f 140/89/264 45/145/263 47/147/269 144/93/270
s 13
f 46/146/266 141/92/265 145/96/271 48/148/272
s 5
f 142/91/268 139/90/267 143/94/273 146/95/274
s 12
f 144/93/270 47/147/269 49/149/275 148/97/276
s 13
f 48/148/272 145/96/271 149/151/277 50/152/278
s 5
f 146/95/274 143/94/273 147/98/279 150/99/280
s off
f 50/150/281 149/100/282 148/154/283 49/153/284
