# This file uses meters as units for non-parametric coordinates.

mtllib floating piece 3.mtl
g default
v -1000.000000 -80.506775 -100.000000
v -900.000000 -44.951050 -100.000000
v -1000.000000 -111.817413 -100.000000
v -900.000000 -173.231903 -100.000000
v -800.000000 -199.090637 -100.000000
v -800.000000 -6.162964 -100.000000
v -700.000000 -218.484680 -100.000000
v -700.000000 1.918091 -100.000000
v -600.000000 -182.928925 -100.000000
v -600.000000 32.625000 -100.000000
v -500.000000 -202.322968 -100.000000
v -500.000000 148.989380 -100.000000
v -400.000000 -181.312805 -100.000000
v -400.000000 182.928955 -100.000000
v -300.000000 -197.474426 -100.000000
v -300.000000 165.151123 -100.000000
v -200.000000 -218.484680 -100.000000
v -200.000000 166.767212 -100.000000
v -100.000000 -228.181702 -100.000000
v -100.000000 223.333252 -100.000000
v 0.000000 -228.181702 -100.000000
v 0.000000 245.959595 -100.000000
v 100.000000 -195.858276 -100.000000
v 100.000000 241.111084 -100.000000
v 200.000000 -176.464294 -100.000000
v 200.000000 210.403809 -100.000000
v 300.000000 -168.383453 -100.000000
v 300.000000 158.686401 -100.000000
v 400.000000 -189.393616 -100.000000
v 400.000000 140.908569 -100.000000
v 500.000000 -223.333221 -100.000000
v 500.000000 142.524658 -100.000000
v 600.000000 -234.646362 -100.000000
v 600.000000 115.049805 -100.000000
v 700.000000 -245.959564 -100.000000
v 700.000000 -6.162842 -100.000000
v 800.000000 -226.565521 -100.000000
v 800.000000 -59.496399 -100.000000
v 900.000000 -200.706787 -100.000000
v 900.000000 -117.678711 -100.000000
v 1000.000000 -187.205750 -100.000000
v 1000.000000 -157.038696 -100.000000
v -993.191406 -108.009033 100.000000
v -1000.000000 -111.817413 93.191864
v -897.306641 -166.896179 100.000000
v -900.000000 -173.231903 93.191864
v -993.191406 -85.311768 100.000000
v -1000.000000 -80.506775 93.191864
v -900.000000 -44.951050 93.191864
v -897.628906 -51.333374 100.000000
v -798.498047 -192.446899 100.000000
v -800.000000 -199.090637 93.191864
v -800.000000 -6.162964 93.191864
v -798.462891 -12.869141 100.000000
v -700.529297 -211.447083 100.000000
v -700.000000 -218.484680 93.191864
v -700.000000 1.918091 93.191864
v -698.710938 -4.808105 100.000000
v -600.529297 -175.891327 100.000000
v -600.000000 -182.928925 93.191864
v -600.000000 32.625000 93.191864
v -596.121094 26.694702 100.000000
v -500.054688 -195.377502 100.000000
v -500.000000 -202.322968 93.191864
v -500.000000 148.989380 93.191864
v -496.050781 143.140625 100.000000
v -400.162109 -174.390106 100.000000
v -400.000000 -181.312805 93.191864
v -400.000000 182.928955 93.191864
v -399.468750 175.919678 100.000000
v -298.755859 -190.778961 100.000000
v -300.000000 -197.474426 93.191864
v -300.000000 165.151123 93.191864
v -300.546875 158.333252 100.000000
v -198.968750 -211.744629 100.000000
v -200.000000 -218.484680 93.191864
v -200.000000 166.767212 93.191864
v -198.156250 159.988037 100.000000
v -99.671875 -221.373566 100.000000
v -100.000000 -228.181702 93.191864
v -100.000000 223.333252 93.191864
v -97.519531 216.914062 100.000000
v -1.074219 -221.373566 100.000000
v 0.000000 -228.181702 93.191864
v 0.000000 245.959595 93.191864
v 0.597656 239.114502 100.000000
v 98.298828 -189.253235 100.000000
v 100.000000 -195.858276 93.191864
v 100.000000 241.111084 93.191864
v 98.816406 234.352295 100.000000
v 199.074219 -169.708710 100.000000
v 200.000000 -176.464294 93.191864
v 200.000000 210.403809 93.191864
v 197.416016 204.075317 100.000000
v 300.433594 -161.518005 100.000000
v 300.000000 -168.383453 93.191864
v 300.000000 158.686401 93.191864
v 297.791016 152.164307 100.000000
v 401.800781 -182.815094 100.000000
v 400.000000 -189.393616 93.191864
v 400.000000 140.908569 93.191864
v 399.453125 134.090698 100.000000
v 501.494141 -216.650665 100.000000
v 500.000000 -223.333221 93.191864
v 500.000000 142.524658 93.191864
v 499.136719 135.701660 100.000000
v 600.000000 -227.816620 100.000000
v 600.000000 -234.646362 93.170250
v 600.000000 115.049805 93.191864
v 596.119141 109.055664 100.000000
v 699.728516 -239.077271 100.000000
v 700.000000 -245.959564 93.191864
v 700.000000 -6.162842 93.191864
v 695.605469 -11.535522 100.000000
v 798.498047 -219.921783 100.000000
v 800.000000 -226.565521 93.191864
v 800.000000 -59.496399 93.191864
v 796.683594 -65.444305 100.000000
v 898.687500 -194.014038 100.000000
v 900.000000 -200.706787 93.191864
v 900.000000 -117.678711 93.191864
v 897.023438 -123.823975 100.000000
v 993.191406 -181.255005 100.000000
v 1000.000000 -187.205750 93.191864
v 1000.000000 -157.038696 93.191864
v 993.191406 -161.675537 100.000000
vt 0.812344 0.335580
vt 0.812632 0.334914
vt 0.816182 0.342860
vt 0.815546 0.343060
vt 0.810562 0.335536
vt 0.809996 0.334953
vt 0.817774 0.349906
vt 0.817088 0.350059
vt 0.807425 0.342583
vt 0.806791 0.342314
vt 0.804615 0.350019
vt 0.803991 0.349844
vt 0.818997 0.356809
vt 0.818356 0.356860
vt 0.803382 0.357512
vt 0.802655 0.357311
vt 0.818145 0.364396
vt 0.817298 0.364407
vt 0.801328 0.365358
vt 0.800564 0.364957
vt 0.819511 0.371664
vt 0.818850 0.371695
vt 0.794990 0.374222
vt 0.794400 0.374007
vt 0.819427 0.379465
vt 0.818645 0.379507
vt 0.793226 0.381111
vt 0.792606 0.381045
vt 0.820546 0.387033
vt 0.819819 0.387148
vt 0.793667 0.388102
vt 0.792891 0.388096
vt 0.821817 0.394445
vt 0.821125 0.394530
vt 0.793288 0.395582
vt 0.792453 0.395413
vt 0.822579 0.401710
vt 0.821889 0.401742
vt 0.790541 0.403394
vt 0.789890 0.403301
vt 0.822888 0.409044
vt 0.822251 0.409028
vt 0.789799 0.410516
vt 0.789138 0.410504
vt 0.821715 0.416795
vt 0.820997 0.416713
vt 0.790295 0.417375
vt 0.789635 0.417457
vt 0.820780 0.424495
vt 0.820033 0.424447
vt 0.792071 0.424387
vt 0.791396 0.424551
vt 0.820314 0.432207
vt 0.819514 0.432217
vt 0.795014 0.431758
vt 0.794220 0.431960
vt 0.821109 0.439975
vt 0.820373 0.440055
vt 0.796357 0.439060
vt 0.795579 0.439170
vt 0.822335 0.447753
vt 0.821680 0.447798
vt 0.796795 0.446095
vt 0.796143 0.446245
vt 0.822413 0.455232
vt 0.821699 0.455210
vt 0.798497 0.453028
vt 0.797940 0.453297
vt 0.822416 0.462413
vt 0.821748 0.462382
vt 0.805258 0.461459
vt 0.804599 0.461897
vt 0.821241 0.469606
vt 0.820539 0.469488
vt 0.809118 0.469257
vt 0.808498 0.469587
vt 0.819781 0.477017
vt 0.819031 0.476900
vt 0.813541 0.476919
vt 0.812872 0.477243
vt 0.819011 0.484429
vt 0.818339 0.483914
vt 0.816878 0.483954
vt 0.816567 0.484692
vt 0.793523 0.337474
vt 0.796399 0.329957
vt 0.813588 0.320595
vt 0.829926 0.339316
vt 0.833420 0.486067
vt 0.817170 0.499038
vt 0.831627 0.347195
vt 0.790792 0.345195
vt 0.832613 0.355128
vt 0.788674 0.352547
vt 0.832955 0.362942
vt 0.786365 0.359787
vt 0.833615 0.370574
vt 0.781672 0.369884
vt 0.834162 0.378088
vt 0.779277 0.378044
vt 0.835079 0.385619
vt 0.778238 0.386070
vt 0.836038 0.393409
vt 0.777469 0.393633
vt 0.836617 0.401242
vt 0.776082 0.402184
vt 0.836614 0.409147
vt 0.775400 0.410412
vt 0.835965 0.417160
vt 0.775789 0.418567
vt 0.835387 0.424688
vt 0.777263 0.426862
vt 0.835272 0.431946
vt 0.779523 0.435314
vt 0.835778 0.439459
vt 0.781301 0.442706
vt 0.836436 0.447538
vt 0.782920 0.450176
vt 0.836617 0.455366
vt 0.785404 0.458118
vt 0.836306 0.463260
vt 0.791471 0.469036
vt 0.835376 0.471019
vt 0.795721 0.476358
vt 0.834292 0.478626
vt 0.799940 0.483917
vt 0.803585 0.490958
vt 0.816379 0.484554
vt 0.818808 0.484602
vt 0.819410 0.498944
vt 0.812974 0.334994
vt 0.827186 0.330925
vt 0.811266 0.320439
vt 0.810293 0.334770
vn -0.370045 -0.602536 0.707119
vn -0.370045 -0.602536 0.707119
vn -0.280519 -0.644790 0.711023
vn -0.280514 -0.644793 0.711023
vn -0.707083 0.000000 0.707130
vn -0.707083 0.000000 0.707130
vn -0.707083 0.000000 0.707130
vn -0.707083 0.000000 0.707130
vn -0.156056 -0.689498 0.707276
vn -0.156056 -0.689498 0.707276
vn -0.236891 0.666248 0.707104
vn -0.236891 0.666248 0.707104
vn -0.246449 0.662736 0.707138
vn -0.246450 0.662736 0.707138
vn -0.160342 0.684870 0.710805
vn -0.160341 0.684870 0.710805
vn 0.056890 -0.691952 0.719699
vn 0.056883 -0.691952 0.719699
vn -0.134766 0.692017 0.709190
vn -0.134761 0.692018 0.709190
vn 0.055695 -0.692048 0.719700
vn 0.055702 -0.692047 0.719700
vn -0.409748 0.559277 0.720635
vn -0.409773 0.559260 0.720635
vn 0.005458 -0.699981 0.714141
vn 0.005444 -0.699981 0.714141
vn -0.418706 0.554457 0.719209
vn -0.418688 0.554471 0.719210
vn 0.016501 -0.700887 0.713081
vn 0.016499 -0.700887 0.713081
vn -0.054980 0.693541 0.718316
vn -0.054984 0.693541 0.718316
vn -0.129126 -0.695116 0.707206
vn -0.129126 -0.695116 0.707206
vn 0.056242 0.703224 0.708740
vn 0.056233 0.703225 0.708740
vn -0.107274 -0.698378 0.707644
vn -0.107276 -0.698378 0.707644
vn -0.193672 0.668469 0.718081
vn -0.193660 0.668472 0.718081
vn -0.034281 -0.705864 0.707517
vn -0.034287 -0.705864 0.707517
vn -0.259528 0.653676 0.710882
vn -0.259535 0.653673 0.710882
vn 0.112344 -0.693717 0.711432
vn 0.112326 -0.693720 0.711432
vn -0.062292 0.701079 0.710358
vn -0.062296 0.701078 0.710358
vn 0.176717 -0.683993 0.707761
vn 0.176716 -0.683993 0.707761
vn 0.123360 0.693453 0.709863
vn 0.123374 0.693450 0.709863
vn 0.096102 -0.699993 0.707654
vn 0.096105 -0.699993 0.707654
vn 0.269147 0.652338 0.708530
vn 0.269149 0.652337 0.708530
vn -0.045388 -0.701961 0.710768
vn -0.045373 -0.701962 0.710768
vn 0.230443 0.664237 0.711115
vn 0.230448 0.664236 0.711115
vn -0.186993 -0.681271 0.707746
vn -0.186995 -0.681270 0.707746
vn 0.057162 0.703150 0.708740
vn 0.057153 0.703151 0.708740
vn -0.155878 -0.688179 0.708598
vn -0.155882 -0.688178 0.708598
vn 0.089536 0.697797 0.710678
vn 0.089524 0.697798 0.710678
vn -0.079615 -0.703740 0.705982
vn -0.079615 -0.703740 0.705982
vn 0.413228 0.553628 0.723007
vn 0.413229 0.553627 0.723007
vn 0.028052 -0.702992 0.710644
vn 0.028065 -0.702992 0.710644
vn 0.460156 0.528063 0.713727
vn 0.460146 0.528071 0.713728
vn 0.156087 -0.689492 0.707275
vn 0.156086 -0.689492 0.707275
vn 0.344290 0.617525 0.707197
vn 0.344292 0.617524 0.707197
vn 0.137011 -0.693067 0.707734
vn 0.137012 -0.693066 0.707734
vn 0.310017 0.634364 0.708147
vn 0.310012 0.634366 0.708147
vn 0.094608 -0.700746 0.707110
vn 0.094608 -0.700746 0.707110
vn 0.258974 0.657963 0.707119
vn 0.258974 0.657963 0.707119
vn 0.707083 0.000000 0.707131
vn 0.707083 0.000000 0.707131
vn 0.707083 0.000000 0.707131
vn 0.707083 0.000000 0.707131
vn 0.000000 0.000000 1.000000
vn 0.000000 0.000000 1.000000
vn 0.000000 0.000000 1.000000
vn 0.000000 0.000000 1.000000
vn -0.335011 0.942214 0.000000
vn -0.348426 0.937336 0.000000
vn -0.348426 0.937336 0.000000
vn -0.335011 0.942214 0.000000
vn -0.523331 -0.852130 0.000000
vn -0.399946 -0.916539 0.000000
vn -0.399946 -0.916539 0.000000
vn -0.523331 -0.852130 0.000000
vn 1.000000 0.000000 0.000000
vn 1.000000 0.000000 0.000000
vn 1.000000 0.000000 0.000000
vn 1.000000 0.000000 0.000000
vn -1.000000 0.000000 0.000000
vn -1.000000 0.000000 0.000000
vn -1.000000 0.000000 0.000000
vn -1.000000 0.000000 0.000000
vn -0.220685 -0.975345 0.000000
vn -0.220685 -0.975345 0.000000
vn -0.228164 0.973623 0.000000
vn -0.228164 0.973623 0.000000
vn -0.000000 0.000000 1.000000
vn -0.000000 0.000000 1.000000
vn -0.190393 -0.981708 0.000000
vn -0.190393 -0.981708 0.000000
vn -0.190392 0.981708 0.000000
vn -0.190392 0.981708 0.000000
vn -0.000000 0.000000 1.000000
vn -0.000000 0.000000 1.000000
vn 0.335011 -0.942214 0.000000
vn 0.335011 -0.942214 0.000000
vn 0.335011 -0.942214 0.000000
vn 0.335011 -0.942214 0.000000
vn -0.293541 0.955946 0.000000
vn -0.293541 0.955946 0.000000
vn -0.000000 0.000000 1.000000
vn -0.000000 0.000000 1.000000
vn -0.190393 -0.981708 0.000000
vn -0.190393 -0.981708 0.000000
vn 0.008080 -0.999967 0.000000
vn 0.008080 -0.999967 0.000000
vn -0.758422 0.651764 0.000000
vn -0.758422 0.651764 0.000000
vn -0.758422 0.651764 0.000000
vn -0.758422 0.651764 0.000000
vn 0.000000 0.000000 1.000000
vn 0.000000 0.000000 1.000000
vn 0.024236 -0.999706 0.000000
vn 0.024236 -0.999706 0.000000
vn -0.321390 0.946947 0.000000
vn -0.321390 0.946947 0.000000
vn -0.080546 0.996751 0.000000
vn -0.080546 0.996751 0.000000
vn -0.000000 0.000000 1.000000
vn -0.000000 0.000000 1.000000
vn -0.182730 -0.983163 0.000000
vn -0.182730 -0.983163 0.000000
vn 0.080546 0.996751 0.000000
vn 0.080546 0.996751 0.000000
vn 0.000000 0.000000 1.000000
vn -0.000000 0.000000 1.000000
vn -0.151758 -0.988418 0.000000
vn -0.151758 -0.988418 0.000000
vn -0.279331 0.960195 0.000000
vn -0.279331 0.960195 0.000000
vn 0.000000 0.000000 1.000000
vn 0.000000 0.000000 1.000000
vn -0.048428 -0.998827 0.000000
vn -0.048428 -0.998827 0.000000
vn -0.368152 0.929766 0.000000
vn -0.368152 0.929766 0.000000
vn -0.000000 0.000000 1.000000
vn -0.000000 0.000000 1.000000
vn 0.159547 -0.987190 0.000000
vn 0.159547 -0.987190 0.000000
vn -0.088540 0.996073 0.000000
vn -0.088540 0.996073 0.000000
vn -0.000000 0.000000 1.000000
vn -0.000000 0.000000 1.000000
vn 0.250352 -0.968155 0.000000
vn 0.250352 -0.968155 0.000000
vn 0.175034 0.984562 0.000000
vn 0.175034 0.984562 0.000000
vn -0.000000 0.000000 1.000000
vn -0.000000 0.000000 1.000000
vn 0.136096 -0.990696 0.000000
vn 0.136096 -0.990696 0.000000
vn 0.381033 0.924561 0.000000
vn 0.381033 0.924561 0.000000
vn 0.000000 0.000000 1.000000
vn 0.000000 0.000000 1.000000
vn -0.064512 -0.997917 0.000000
vn -0.064512 -0.997917 0.000000
vn 0.328226 0.944599 0.000000
vn 0.328226 0.944599 0.000000
vn -0.000000 0.000000 1.000000
vn -0.000000 0.000000 1.000000
vn -0.264931 -0.964267 0.000000
vn -0.264931 -0.964267 0.000000
vn 0.080546 0.996751 0.000000
vn 0.080546 0.996751 0.000000
vn -0.000000 0.000000 1.000000
vn -0.000000 0.000000 1.000000
vn -0.220688 -0.975344 0.000000
vn -0.220695 -0.975343 0.000000
vn 0.128226 0.991745 0.000000
vn 0.128226 0.991745 0.000000
vn 0.000000 0.000000 1.000000
vn 0.000000 0.000000 1.000000
vn -0.112415 -0.993661 0.000000
vn -0.112415 -0.993661 0.000000
vn 0.264931 0.964267 0.000000
vn 0.264931 0.964267 0.000000
vn -0.000000 0.000000 1.000000
vn 0.000000 0.000000 1.000000
vn 0.040376 -0.999185 0.000000
vn 0.040386 -0.999184 0.000000
vn 0.771374 0.636382 0.000000
vn 0.771374 0.636382 0.000000
vn 0.657536 0.753423 0.000000
vn 0.657536 0.753423 0.000000
vn -0.000000 0.000000 1.000000
vn -0.000000 0.000000 1.000000
vn 0.220685 -0.975345 0.000000
vn 0.220685 -0.975345 0.000000
vn 0.486993 0.873406 0.000000
vn 0.486993 0.873406 0.000000
vn 0.000000 0.000000 1.000000
vn 0.000000 0.000000 1.000000
vn 0.193095 -0.981180 0.000000
vn 0.193095 -0.981180 0.000000
vn 0.438356 0.898802 0.000000
vn 0.438356 0.898802 0.000000
vn 0.000000 0.000000 1.000000
vn 0.000000 0.000000 1.000000
vn 0.133796 -0.991009 0.000000
vn 0.133796 -0.991009 0.000000
vn 0.366251 0.930516 0.000000
vn 0.366251 0.930516 0.000000
vn 0.000000 0.000000 1.000000
vn 0.000000 0.000000 1.000000
s 1
g floating_piece_3
usemtl initialShadingGroup
f 43/1/1 44/131/2 46/3/3 45/4/4
s off
f 44/2/5 43/1/6 47/5/7 48/134/8
s 1
f 45/4/4 46/3/3 52/7/9 51/8/10
s 2
f 48/6/11 47/5/12 50/9/13 49/10/14
f 49/10/14 50/9/13 54/11/15 53/12/16
s 1
f 51/8/10 52/7/9 56/13/17 55/14/18
s 2
f 53/12/16 54/11/15 58/15/19 57/16/20
s 1
f 55/14/18 56/13/17 60/17/21 59/18/22
s 2
f 57/16/20 58/15/19 62/19/23 61/20/24
s 1
f 59/18/22 60/17/21 64/21/25 63/22/26
s 2
f 61/20/24 62/19/23 66/23/27 65/24/28
s 1
f 63/22/26 64/21/25 68/25/29 67/26/30
s 2
f 65/24/28 66/23/27 70/27/31 69/28/32
s 1
f 67/26/30 68/25/29 72/29/33 71/30/34
s 2
f 69/28/32 70/27/31 74/31/35 73/32/36
s 1
f 71/30/34 72/29/33 76/33/37 75/34/38
s 2
f 73/32/36 74/31/35 78/35/39 77/36/40
s 1
f 75/34/38 76/33/37 80/37/41 79/38/42
s 2
f 77/36/40 78/35/39 82/39/43 81/40/44
s 1
f 79/38/42 80/37/41 84/41/45 83/42/46
s 2
f 81/40/44 82/39/43 86/43/47 85/44/48
s 1
f 83/42/46 84/41/45 88/45/49 87/46/50
s 2
f 85/44/48 86/43/47 90/47/51 89/48/52
s 1
f 87/46/50 88/45/49 92/49/53 91/50/54
s 2
f 89/48/52 90/47/51 94/51/55 93/52/56
s 1
f 91/50/54 92/49/53 96/53/57 95/54/58
s 2
f 93/52/56 94/51/55 98/55/59 97/56/60
s 1
f 95/54/58 96/53/57 100/57/61 99/58/62
s 2
f 97/56/60 98/55/59 102/59/63 101/60/64
s 1
f 99/58/62 100/57/61 104/61/65 103/62/66
s 2
f 101/60/64 102/59/63 106/63/67 105/64/68
s 1
f 103/62/66 104/61/65 108/65/69 107/66/70
s 2
f 105/64/68 106/63/67 110/67/71 109/68/72
s 1
f 107/66/70 108/65/69 112/69/73 111/70/74
s 2
f 109/68/72 110/67/71 114/71/75 113/72/76
s 1
f 111/70/74 112/69/73 116/73/77 115/74/78
s 2
f 113/72/76 114/71/75 118/75/79 117/76/80
s 1
f 115/74/78 116/73/77 120/77/81 119/78/82
s 2
f 117/76/80 118/75/79 122/79/83 121/80/84
s 1
f 119/78/82 120/77/81 124/81/85 123/82/86
s 2
f 121/80/84 122/79/83 126/83/87 125/128/88
s off
f 123/82/89 124/129/90 125/84/91 126/83/92
s 3
f 43/1/93 45/4/94 50/9/95 47/5/96
s 4
f 48/6/97 49/10/98 2/85/99 1/86/100
s 5
f 3/132/101 4/88/102 46/3/103 44/131/104
s off
f 124/129/105 41/130/106 42/90/107 125/84/108
f 3/87/109 44/2/110 48/134/111 1/133/112
s 5
f 46/3/103 4/88/102 5/91/113 52/7/114
s 4
f 2/85/99 49/10/98 53/12/115 6/92/116
s 3
f 50/9/95 45/4/94 51/8/117 54/11/118
s 5
f 52/7/114 5/91/113 7/93/119 56/13/120
s 4
f 6/92/116 53/12/115 57/16/121 8/94/122
s 3
f 54/11/118 51/8/117 55/14/123 58/15/124
s off
f 56/13/125 7/93/126 9/95/127 60/17/128
s 4
f 8/94/122 57/16/121 61/20/129 10/96/130
s 3
f 58/15/124 55/14/123 59/18/131 62/19/132
s 6
f 60/17/133 9/95/134 11/97/135 64/21/136
s off
f 10/96/137 61/20/138 65/24/139 12/98/140
s 3
f 62/19/132 59/18/131 63/22/141 66/23/142
s 6
f 64/21/136 11/97/135 13/99/143 68/25/144
s 7
f 12/98/145 65/24/146 69/28/147 14/100/148
s 3
f 66/23/142 63/22/141 67/26/149 70/27/150
s 6
f 68/25/144 13/99/143 15/101/151 72/29/152
s 7
f 14/100/148 69/28/147 73/32/153 16/102/154
s 3
f 70/27/150 67/26/149 71/30/155 74/31/156
s 6
f 72/29/152 15/101/151 17/103/157 76/33/158
s 7
f 16/102/154 73/32/153 77/36/159 18/104/160
s 3
f 74/31/156 71/30/155 75/34/161 78/35/162
s 6
f 76/33/158 17/103/157 19/105/163 80/37/164
s 7
f 18/104/160 77/36/159 81/40/165 20/106/166
s 3
f 78/35/162 75/34/161 79/38/167 82/39/168
s 6
f 80/37/164 19/105/163 21/107/169 84/41/170
s 7
f 20/106/166 81/40/165 85/44/171 22/108/172
s 3
f 82/39/168 79/38/167 83/42/173 86/43/174
s 6
f 84/41/170 21/107/169 23/109/175 88/45/176
s 7
f 22/108/172 85/44/171 89/48/177 24/110/178
s 3
f 86/43/174 83/42/173 87/46/179 90/47/180
s 6
f 88/45/176 23/109/175 25/111/181 92/49/182
s 7
f 24/110/178 89/48/177 93/52/183 26/112/184
s 3
f 90/47/180 87/46/179 91/50/185 94/51/186
s 6
f 92/49/182 25/111/181 27/113/187 96/53/188
s 7
f 26/112/184 93/52/183 97/56/189 28/114/190
s 3
f 94/51/186 91/50/185 95/54/191 98/55/192
s 6
f 96/53/188 27/113/187 29/115/193 100/57/194
s 7
f 28/114/190 97/56/189 101/60/195 30/116/196
s 3
f 98/55/192 95/54/191 99/58/197 102/59/198
s 6
f 100/57/194 29/115/193 31/117/199 104/61/200
s 7
f 30/116/196 101/60/195 105/64/201 32/118/202
s 3
f 102/59/198 99/58/197 103/62/203 106/63/204
s 6
f 104/61/200 31/117/199 33/119/205 108/65/206
s 7
f 32/118/202 105/64/201 109/68/207 34/120/208
s 3
f 106/63/204 103/62/203 107/66/209 110/67/210
s 6
f 108/65/206 33/119/205 35/121/211 112/69/212
s 8
f 34/120/213 109/68/214 113/72/215 36/122/216
s 3
f 110/67/210 107/66/209 111/70/217 114/71/218
s 6
f 112/69/212 35/121/211 37/123/219 116/73/220
s 8
f 36/122/216 113/72/215 117/76/221 38/124/222
s 3
f 114/71/218 111/70/217 115/74/223 118/75/224
s 6
f 116/73/220 37/123/219 39/125/225 120/77/226
s 8
f 38/124/222 117/76/221 121/80/227 40/126/228
s 3
f 118/75/224 115/74/223 119/78/229 122/79/230
s 6
f 120/77/226 39/125/225 41/89/231 124/81/232
s 8
f 40/126/228 121/80/227 125/128/233 42/127/234
s 3
f 122/79/230 119/78/229 123/82/235 126/83/236
