# This file uses meters as units for non-parametric coordinates.

mtllib Beginning City level piece 4.mtl
g default
v -500.027344 -222.876984 100.000015
v -300.025391 -222.876984 100.000015
v -500.025391 179.842987 -99.999985
v -300.025391 174.059662 -99.999985
v -400.027344 -222.876984 100.000015
v -400.027344 222.876984 -99.999985
v -200.025391 -222.876984 100.000015
v -100.027344 -222.876984 100.000015
v -0.027344 -222.876984 100.000015
v 99.972656 -222.876984 100.000015
v 199.972656 -222.876984 100.000015
v 299.972656 -222.876984 100.000015
v 399.972656 -222.876984 100.000015
v -200.025391 174.081390 -99.999985
v -100.027344 198.189850 -99.999985
v -0.027344 182.440094 -99.999985
v 99.972656 157.650360 -99.999985
v 199.972656 105.661102 -99.999985
v 299.972656 108.684113 -99.999985
v 399.972656 161.361786 -99.999985
v 499.974609 -222.876984 100.000015
v 499.974609 165.302094 -99.999985
v -500.025391 172.363312 100.000015
v -500.025391 179.842987 93.077095
v -401.413086 216.062653 100.000015
v -400.027344 222.876984 93.077095
v -300.025391 174.059662 93.077095
v -302.330078 167.524261 100.000015
v -202.069336 167.441498 100.000015
v -200.025391 174.081390 93.077072
v -100.953125 191.306671 100.000015
v -100.025391 198.189850 93.077087
v 0.121094 175.499359 100.000015
v -0.025391 182.440094 93.077087
v 99.699219 150.669037 100.000015
v 99.972656 157.650360 93.077095
v 198.230469 98.938629 100.000015
v 199.972656 105.661102 93.077095
v 299.972656 101.568878 100.000015
v 299.972656 108.684113 92.884872
v 399.972656 161.361786 93.077103
v 398.339844 154.607574 100.000015
v 499.646484 158.359100 100.000015
v 500.027344 165.303436 93.076752
vt 0.923790 0.404782
vt 0.925530 0.404807
vt 0.921114 0.419137
vt 0.920007 0.419282
vt 0.925479 0.433776
vt 0.923888 0.434107
vt 0.925570 0.448363
vt 0.924068 0.448703
vt 0.923732 0.462971
vt 0.922498 0.463139
vt 0.925426 0.477462
vt 0.924066 0.477397
vt 0.927732 0.492050
vt 0.926402 0.491941
vt 0.932750 0.507496
vt 0.931140 0.507808
vt 0.932969 0.523026
vt 0.931336 0.523048
vt 0.928429 0.538664
vt 0.927223 0.539064
vt 0.928452 0.553363
vt 0.926998 0.553457
vt 0.982725 0.405687
vt 0.982605 0.420222
vt 0.893839 0.418653
vt 0.894878 0.402190
vt 0.982413 0.434724
vt 0.894723 0.435378
vt 0.895296 0.449609
vt 0.982305 0.449271
vt 0.980924 0.521306
vt 0.981670 0.535350
vt 0.980812 0.507281
vt 0.981114 0.493223
vt 0.981806 0.478616
vt 0.982224 0.463849
vt 0.900465 0.537776
vt 0.901893 0.522642
vt 0.901838 0.509397
vt 0.899446 0.494489
vt 0.897067 0.479749
vt 0.895562 0.464863
vt 0.982725 0.549887
vt 0.899373 0.552310
vn -0.296577 0.679132 0.671432
vn -0.296577 0.679132 0.671432
vn -0.002339 0.693727 0.720234
vn 0.048207 0.690030 0.722174
vn 0.176714 0.686719 0.705117
vn 0.160952 0.691064 0.704645
vn -0.069971 0.726451 0.683647
vn -0.101909 0.726190 0.679899
vn -0.039424 0.719571 0.693299
vn -0.017234 0.717738 0.696100
vn 0.144341 0.697065 0.702329
vn 0.138136 0.697706 0.702940
vn 0.269580 0.667211 0.694374
vn 0.245770 0.674435 0.696229
vn 0.170060 0.688503 0.705013
vn 0.165670 0.689375 0.705206
vn -0.174881 0.710989 0.681110
vn -0.215481 0.707458 0.673106
vn -0.236307 0.704788 0.668904
vn -0.161269 0.711317 0.684120
vn -0.027224 0.712600 0.701043
vn -0.027224 0.712600 0.701043
vn 0.000000 0.000000 1.000000
vn 0.000000 0.000000 1.000000
vn 0.000000 0.000000 1.000000
vn 0.000000 0.000000 1.000000
vn -0.395298 0.918553 0.000000
vn 0.028905 0.999582 0.000000
vn 0.028905 0.999582 0.000000
vn -0.395298 0.918553 0.000000
vn -0.000000 0.000000 1.000000
vn -0.000000 0.000000 1.000000
vn 0.237023 0.971504 0.000000
vn 0.237023 0.971504 0.000000
vn -0.119783 0.992800 0.000001
vn -0.119783 0.992800 0.000001
vn 0.000000 0.000000 1.000000
vn 0.000000 0.000000 1.000000
vn 0.000000 0.000000 1.000000
vn 0.000000 0.000000 1.000000
vn 0.000000 0.000000 1.000000
vn 0.000000 0.000000 1.000000
vn 0.000000 0.000000 1.000000
vn 0.000000 0.000000 1.000000
vn 0.000000 0.000000 1.000000
vn 0.000000 0.000000 1.000000
vn 0.000000 0.000000 1.000000
vn 0.000000 0.000000 1.000000
vn 0.000000 0.000000 1.000000
vn 0.000000 0.000000 1.000000
vn -0.268277 0.963342 0.000000
vn -0.272182 0.962246 0.000001
vn -0.272299 0.962213 0.000001
vn -0.268293 0.963337 0.000000
vn 0.238025 0.971259 0.000000
vn 0.237870 0.971297 0.000000
vn 0.358395 0.933570 -0.000001
vn 0.358395 0.933570 -0.000001
vn 0.198659 0.980069 -0.000001
vn 0.198658 0.980069 -0.000001
vn -0.041756 0.999128 -0.000000
vn -0.041759 0.999128 -0.000000
vn 0.000000 0.000000 1.000000
vn 0.000000 0.000000 1.000000
vn -0.039368 0.999225 0.000002
vn -0.039368 0.999225 0.000002
s 1
g Beginning_City_Level_Piece_4
usemtl initialShadingGroup
f 24/1/1 23/2/2 25/3/3 26/4/4
f 26/4/4 25/3/3 28/5/5 27/6/6
f 27/6/6 28/5/5 29/7/7 30/8/8
f 30/8/8 29/7/7 31/9/9 32/10/10
f 32/10/10 31/9/9 33/11/11 34/12/12
f 34/12/12 33/11/11 35/13/13 36/14/14
f 36/14/14 35/13/13 37/15/15 38/16/16
f 38/16/16 37/15/15 39/17/17 40/18/18
f 40/18/18 39/17/17 42/19/19 41/20/20
f 41/20/20 42/19/19 43/21/21 44/22/22
s 2
f 1/23/23 5/24/24 25/3/25 23/2/26
s 3
f 24/1/27 26/4/28 6/25/29 3/26/30
s 2
f 25/3/25 5/24/24 2/27/31 28/5/32
s 3
f 6/25/29 26/4/28 27/6/33 4/28/34
f 4/28/34 27/6/33 30/8/35 14/29/36
s 2
f 28/5/32 2/27/31 7/30/37 29/7/38
f 12/31/39 13/32/40 42/19/41 39/17/42
f 11/33/43 12/31/39 39/17/42 37/15/44
f 10/34/45 11/33/43 37/15/44 35/13/46
f 9/35/47 10/34/45 35/13/46 33/11/48
f 7/30/37 8/36/49 31/9/50 29/7/38
f 8/36/49 9/35/47 33/11/48 31/9/50
s 3
f 40/18/51 41/20/52 20/37/53 19/38/54
f 38/16/55 40/18/51 19/38/54 18/39/56
f 36/14/57 38/16/55 18/39/56 17/40/58
f 34/12/59 36/14/57 17/40/58 16/41/60
f 30/8/35 32/10/61 15/42/62 14/29/36
f 32/10/61 34/12/59 16/41/60 15/42/62
s 2
f 42/19/41 13/32/40 21/43/63 43/21/64
s 3
f 20/37/53 41/20/52 44/22/65 22/44/66
