# This file uses meters as units for non-parametric coordinates.

mtllib Beginning city level piece 3.mtl
g default
v -500.027344 -224.146942 100.000000
v -300.026367 -224.146942 100.000000
v -500.027344 224.146942 -100.000000
v -300.026367 172.789703 -100.000000
v -400.027344 -224.146942 100.000000
v -400.027344 221.607025 -100.000000
v -200.026367 -224.146942 100.000000
v -100.027344 -224.146942 100.000000
v -0.027344 -224.146942 100.000000
v 99.972656 -224.146942 100.000000
v 199.972656 -224.146942 100.000000
v 299.972656 -224.146942 100.000000
v 399.972656 -224.146942 100.000000
v -200.026367 172.811432 -100.000000
v -100.027344 196.919891 -100.000000
v -0.027344 181.170135 -100.000000
v 99.972656 156.380402 -100.000000
v 199.972656 104.391144 -100.000000
v 299.972656 107.414154 -100.000000
v 399.972656 160.091827 -100.000000
v 499.973633 -224.146942 100.000000
v 499.973633 164.032135 -100.000000
v -500.027344 217.184723 100.000000
v -500.027344 224.146942 93.077080
v -401.412598 214.792694 100.000000
v -400.027344 221.607025 93.077080
v -300.026367 172.789703 93.077080
v -302.331543 166.254303 100.000000
v -202.069824 166.171539 100.000000
v -200.024902 172.811432 93.077057
v -100.954102 190.036713 100.000000
v -100.026367 196.919891 93.077072
v 0.121094 174.229401 100.000000
v -0.026367 181.170135 93.077072
v 99.698242 149.399078 100.000000
v 99.972656 156.380402 93.077080
v 198.230469 97.668671 100.000000
v 199.972656 104.391144 93.077080
v 299.971680 100.298920 100.000000
v 299.971680 107.414154 92.884857
v 399.971680 160.091827 93.077087
v 398.338867 153.337616 100.000000
v 499.645508 157.089142 100.000000
v 500.026367 164.033478 93.076736
vt 0.931136 0.252016
vt 0.932621 0.252086
vt 0.932048 0.266309
vt 0.930811 0.266352
vt 0.935849 0.281614
vt 0.934243 0.281875
vt 0.935255 0.296408
vt 0.933749 0.296694
vt 0.932706 0.311032
vt 0.931477 0.311148
vt 0.933588 0.325683
vt 0.932244 0.325547
vt 0.935025 0.340432
vt 0.933711 0.340249
vt 0.939083 0.356185
vt 0.937463 0.356400
vt 0.938352 0.371705
vt 0.936725 0.371628
vt 0.932870 0.387029
vt 0.931643 0.387356
vt 0.931989 0.401693
vt 0.930535 0.401698
vt 0.995802 0.258388
vt 0.994310 0.272881
vt 0.903654 0.267211
vt 0.903077 0.252571
vt 0.992975 0.287097
vt 0.905015 0.283177
vt 0.905200 0.296934
vt 0.991897 0.301448
vt 0.986199 0.372974
vt 0.986091 0.387020
vt 0.986929 0.358993
vt 0.988056 0.345006
vt 0.989602 0.330508
vt 0.990887 0.315849
vt 0.905054 0.384466
vt 0.907409 0.369478
vt 0.908180 0.356298
vt 0.906728 0.341354
vt 0.905259 0.326626
vt 0.904635 0.311879
vt 0.986250 0.401581
vt 0.903077 0.398888
vn 0.017578 0.707888 0.706106
vn 0.017578 0.707888 0.706106
vn 0.177366 0.679796 0.711631
vn 0.172101 0.681025 0.711749
vn 0.176719 0.686717 0.705117
vn 0.160948 0.691065 0.704645
vn -0.069965 0.726454 0.683645
vn -0.101915 0.726194 0.679894
vn -0.039425 0.719577 0.693293
vn -0.017234 0.717743 0.696095
vn 0.144343 0.697067 0.702326
vn 0.138134 0.697709 0.702937
vn 0.269572 0.667207 0.694382
vn 0.245773 0.674429 0.696234
vn 0.170059 0.688497 0.705019
vn 0.165669 0.689369 0.705212
vn -0.174882 0.710989 0.681110
vn -0.215482 0.707458 0.673106
vn -0.236306 0.704788 0.668904
vn -0.161269 0.711317 0.684120
vn -0.027224 0.712600 0.701042
vn -0.027224 0.712600 0.701042
vn 0.000000 0.000000 1.000000
vn 0.000000 0.000000 1.000000
vn 0.000000 0.000000 1.000000
vn 0.000000 0.000000 1.000000
vn 0.025391 0.999678 0.000000
vn 0.248716 0.968577 0.000000
vn 0.248716 0.968577 0.000000
vn 0.025391 0.999678 0.000000
vn 0.000000 0.000000 1.000000
vn 0.000000 0.000000 1.000000
vn 0.237023 0.971504 0.000000
vn 0.237023 0.971504 0.000000
vn -0.119783 0.992800 0.000001
vn -0.119782 0.992800 0.000001
vn -0.000000 0.000000 1.000000
vn -0.000000 0.000000 1.000000
vn -0.000000 0.000000 1.000000
vn -0.000000 0.000000 1.000000
vn -0.000000 0.000000 1.000000
vn -0.000000 0.000000 1.000000
vn 0.000000 0.000000 1.000000
vn 0.000000 0.000000 1.000000
vn 0.000000 0.000000 1.000000
vn 0.000000 0.000000 1.000000
vn 0.000000 0.000000 1.000000
vn 0.000000 0.000000 1.000000
vn 0.000000 0.000000 1.000000
vn 0.000000 0.000000 1.000000
vn -0.268277 0.963342 -0.000001
vn -0.272183 0.962246 -0.000000
vn -0.272299 0.962213 -0.000000
vn -0.268294 0.963337 -0.000001
vn 0.238025 0.971259 -0.000000
vn 0.237871 0.971297 -0.000000
vn 0.358394 0.933571 -0.000000
vn 0.358394 0.933571 -0.000000
vn 0.198658 0.980069 -0.000001
vn 0.198658 0.980069 -0.000001
vn -0.041757 0.999128 0.000000
vn -0.041758 0.999128 0.000000
vn 0.000000 0.000000 1.000000
vn 0.000000 0.000000 1.000000
vn -0.039368 0.999225 0.000002
vn -0.039368 0.999225 0.000002
s 1
g Beginning_City_Level_Piece_3
usemtl initialShadingGroup
f 24/1/1 23/2/2 25/3/3 26/4/4
f 26/4/4 25/3/3 28/5/5 27/6/6
f 27/6/6 28/5/5 29/7/7 30/8/8
f 30/8/8 29/7/7 31/9/9 32/10/10
f 32/10/10 31/9/9 33/11/11 34/12/12
f 34/12/12 33/11/11 35/13/13 36/14/14
f 36/14/14 35/13/13 37/15/15 38/16/16
f 38/16/16 37/15/15 39/17/17 40/18/18
f 40/18/18 39/17/17 42/19/19 41/20/20
f 41/20/20 42/19/19 43/21/21 44/22/22
s 2
f 1/23/23 5/24/24 25/3/25 23/2/26
s 3
f 24/1/27 26/4/28 6/25/29 3/26/30
s 2
f 25/3/25 5/24/24 2/27/31 28/5/32
s 3
f 6/25/29 26/4/28 27/6/33 4/28/34
f 4/28/34 27/6/33 30/8/35 14/29/36
s 2
f 28/5/32 2/27/31 7/30/37 29/7/38
f 12/31/39 13/32/40 42/19/41 39/17/42
f 11/33/43 12/31/39 39/17/42 37/15/44
f 10/34/45 11/33/43 37/15/44 35/13/46
f 9/35/47 10/34/45 35/13/46 33/11/48
f 7/30/37 8/36/49 31/9/50 29/7/38
f 8/36/49 9/35/47 33/11/48 31/9/50
s 3
f 40/18/51 41/20/52 20/37/53 19/38/54
f 38/16/55 40/18/51 19/38/54 18/39/56
f 36/14/57 38/16/55 18/39/56 17/40/58
f 34/12/59 36/14/57 17/40/58 16/41/60
f 30/8/35 32/10/61 15/42/62 14/29/36
f 32/10/61 34/12/59 16/41/60 15/42/62
s 2
f 42/19/41 13/32/40 21/43/63 43/21/64
s 3
f 20/37/53 41/20/52 44/22/65 22/44/66
