# This file uses meters as units for non-parametric coordinates.

mtllib Beginning level 1.mtl
g default
v 753.295898 -200.000000 100.000000
v 753.295898 200.000000 -100.000000
v -753.294922 -200.000000 -100.000000
v 753.295898 200.000000 93.008255
v 750.428223 193.008240 100.000000
v -749.799316 -200.000000 100.000000
v -753.294922 -200.000000 96.504478
v -749.799316 193.008240 100.000000
v -753.294922 196.504150 96.504128
v -753.294922 196.504456 -100.000000
v -749.799316 200.000000 -100.000000
v -749.799316 200.000000 93.008255
vt 0.979297 0.002457
vt 0.979607 0.030846
vt 0.922128 0.031662
vt 0.893915 0.030264
vt 0.922936 0.032227
vt 0.979614 0.031560
vt 0.980249 0.248479
vt 0.923337 0.248701
vt 0.893839 0.030976
vt 0.921519 0.032333
vt 0.921902 0.249133
vt 0.893839 0.249372
vt 0.922422 0.031519
vt 0.922079 0.003125
vn -1.000000 0.000000 0.000000
vn -1.000000 0.000000 0.000000
vn -1.000000 0.000000 0.000000
vn -1.000000 0.000000 0.000000
vn 0.000000 0.000000 1.000000
vn 0.000000 0.000000 1.000000
vn 0.000000 0.000000 1.000000
vn 0.000000 0.000000 1.000000
vn 0.000000 1.000000 0.000000
vn 0.000000 1.000000 0.000000
vn 0.000000 1.000000 0.000000
vn 0.000000 1.000000 0.000000
vn 0.000000 0.707106 0.707107
vn 0.000000 0.707106 0.707107
vn 0.000000 0.707106 0.707107
vn 0.000000 0.707106 0.707107
vn 0.000000 0.707106 0.707107
vn -0.707116 0.000000 0.707097
vn -0.707116 0.000000 0.707097
vn -0.707116 0.000000 0.707097
vn -0.707116 0.000000 0.707097
vn -0.707113 0.707101 0.000001
vn -0.707113 0.707101 0.000001
vn -0.707113 0.707101 0.000001
vn -0.707113 0.707101 0.000001
s off
g Beginning
usemtl initialShadingGroup
f 3/1/1 7/2/2 9/13/3 10/14/4
f 8/5/5 6/6/6 1/7/7 5/8/8
f 11/9/9 12/10/10 4/11/11 2/12/12
f 12/10/13 9/3/14 8/5/15 5/8/16 4/11/17
f 7/2/18 6/6/19 8/5/20 9/13/21
f 11/9/22 10/4/23 9/3/24 12/10/25
