# This file uses meters as units for non-parametric coordinates.

mtllib Finish level 1.mtl
g default
v -2252.271484 -246.618042 100.000000
v -2252.271484 246.618073 -100.000000
v 2252.271484 -246.618042 -100.000000
v -2252.271484 240.618652 100.000000
v -2252.271484 246.618073 94.000595
v 2252.271484 -246.618042 97.000603
v 2249.271484 -246.618042 100.000000
v 2249.271484 240.618652 100.000000
v 2252.271484 243.618317 97.000298
v 2249.271484 246.618073 -100.000000
v 2252.271484 243.618652 -100.000000
v 2249.271484 246.618073 94.000595
vt 0.887389 0.003267
vt 0.887105 0.653335
vt 0.816763 0.652741
vt 0.816931 0.002681
vt 0.815703 0.002671
vt 0.815542 0.652656
vt 0.787611 0.654094
vt 0.787611 0.002457
vt 0.816324 0.653350
vt 0.887100 0.653948
vt 0.886868 0.682411
vt 0.816079 0.681814
vt 0.787678 0.654704
vt 0.816069 0.653231
vn 0.000000 0.000000 1.000000
vn 0.000000 0.000000 1.000000
vn 0.000000 0.000000 1.000000
vn 0.000000 0.000000 1.000000
vn 0.000000 1.000000 0.000000
vn 0.000000 1.000000 0.000000
vn 0.000000 1.000000 0.000000
vn 0.000000 1.000000 0.000000
vn 1.000000 0.000000 0.000000
vn 1.000000 0.000000 0.000000
vn 1.000000 0.000000 0.000000
vn 1.000000 0.000000 0.000000
vn 0.000000 0.707106 0.707107
vn 0.000000 0.707106 0.707107
vn 0.000000 0.707106 0.707107
vn 0.000000 0.707106 0.707107
vn 0.000000 0.707106 0.707107
vn 0.707053 0.000000 0.707160
vn 0.707053 0.000000 0.707160
vn 0.707053 0.000000 0.707160
vn 0.707053 0.000000 0.707160
vn 0.707059 0.707155 0.000001
vn 0.707059 0.707155 0.000001
vn 0.707059 0.707155 0.000001
vn 0.707059 0.707155 0.000001
s off
g Finish
usemtl initialShadingGroup
f 1/1/1 7/2/2 8/3/3 4/4/4
f 5/5/5 12/6/6 10/7/7 2/8/8
f 9/9/9 6/10/10 3/11/11 11/12/12
f 5/5/13 4/4/14 8/3/15 9/14/16 12/6/17
f 7/2/18 6/10/19 9/9/20 8/3/21
f 11/13/22 10/7/23 12/6/24 9/14/25
