# This file uses meters as units for non-parametric coordinates.

mtllib Beginning city level piece 4.mtl
g default
v -500.027344 -222.876984 100.000000
v -300.026367 -222.876984 100.000000
v -500.026367 179.842987 -100.000000
v -300.026367 174.059662 -100.000000
v -400.027344 -222.876984 100.000000
v -400.027344 222.876984 -100.000000
v -200.026367 -222.876984 100.000000
v -100.027344 -222.876984 100.000000
v -0.027344 -222.876984 100.000000
v 99.972656 -222.876984 100.000000
v 199.972656 -222.876984 100.000000
v 299.972656 -222.876984 100.000000
v 399.972656 -222.876984 100.000000
v -200.026367 174.081390 -100.000000
v -100.027344 198.189850 -100.000000
v -0.027344 182.440094 -100.000000
v 99.972656 157.650360 -100.000000
v 199.972656 105.661102 -100.000000
v 299.972656 108.684113 -100.000000
v 399.972656 161.361786 -100.000000
v 499.974609 -222.876984 100.000000
v 499.974609 165.302094 -100.000000
v -500.026367 172.363312 100.000000
v -500.026367 179.842987 93.077080
v -401.412109 216.062653 100.000000
v -400.027344 222.876984 93.077080
v -300.026367 174.059662 93.077080
v -302.330078 167.524261 100.000000
v -202.069336 167.441498 100.000000
v -200.025391 174.081390 93.077057
v -100.953125 191.306671 100.000000
v -100.025391 198.189850 93.077072
v 0.121094 175.499359 100.000000
v -0.025391 182.440094 93.077072
v 99.699219 150.669037 100.000000
v 99.972656 157.650360 93.077080
v 198.230469 98.938629 100.000000
v 199.972656 105.661102 93.077080
v 299.972656 101.568878 100.000000
v 299.972656 108.684113 92.884857
v 399.972656 161.361786 93.077087
v 398.339844 154.607574 100.000000
v 499.646484 158.359100 100.000000
v 500.027344 165.303436 93.076736
vt 0.921564 0.076037
vt 0.923742 0.076069
vt 0.918213 0.094008
vt 0.916828 0.094189
vt 0.923678 0.112334
vt 0.921686 0.112748
vt 0.923792 0.130595
vt 0.921912 0.131021
vt 0.921491 0.148882
vt 0.919946 0.149092
vt 0.923612 0.167023
vt 0.921909 0.166941
vt 0.926499 0.185284
vt 0.924834 0.185148
vt 0.932780 0.204622
vt 0.930765 0.205012
vt 0.933055 0.224063
vt 0.931010 0.224090
vt 0.927371 0.243639
vt 0.925861 0.244140
vt 0.927400 0.262041
vt 0.925580 0.262158
vt 0.995343 0.077171
vt 0.995192 0.095366
vt 0.884070 0.093402
vt 0.885370 0.072793
vt 0.994952 0.113520
vt 0.885176 0.114340
vt 0.885893 0.132154
vt 0.994817 0.131731
vt 0.993088 0.221909
vt 0.994022 0.239491
vt 0.992948 0.204353
vt 0.993326 0.186753
vt 0.994192 0.168468
vt 0.994716 0.149981
vt 0.892364 0.242528
vt 0.894151 0.223582
vt 0.894083 0.207002
vt 0.891088 0.188339
vt 0.888111 0.169886
vt 0.886226 0.151251
vt 0.995343 0.257689
vt 0.890997 0.260722
vn -0.296569 0.679123 0.671445
vn -0.296569 0.679123 0.671445
vn -0.002322 0.693732 0.720230
vn 0.048183 0.690040 0.722165
vn 0.176706 0.686734 0.705104
vn 0.160964 0.691073 0.704634
vn -0.069971 0.726451 0.683647
vn -0.101909 0.726190 0.679899
vn -0.039424 0.719571 0.693299
vn -0.017234 0.717738 0.696100
vn 0.144341 0.697065 0.702329
vn 0.138136 0.697706 0.702940
vn 0.269580 0.667211 0.694374
vn 0.245770 0.674435 0.696229
vn 0.170060 0.688503 0.705012
vn 0.165670 0.689375 0.705206
vn -0.174881 0.710989 0.681110
vn -0.215481 0.707458 0.673106
vn -0.236306 0.704788 0.668904
vn -0.161269 0.711317 0.684120
vn -0.027224 0.712600 0.701043
vn -0.027224 0.712600 0.701043
vn 0.000000 0.000000 1.000000
vn 0.000000 0.000000 1.000000
vn 0.000000 0.000000 1.000000
vn 0.000000 0.000000 1.000000
vn -0.395295 0.918554 0.000000
vn 0.028905 0.999582 0.000000
vn 0.028905 0.999582 0.000000
vn -0.395295 0.918554 0.000000
vn 0.000000 0.000000 1.000000
vn 0.000000 0.000000 1.000000
vn 0.237024 0.971504 0.000000
vn 0.237024 0.971504 0.000000
vn -0.119783 0.992800 0.000001
vn -0.119782 0.992800 0.000001
vn -0.000000 0.000000 1.000000
vn -0.000000 0.000000 1.000000
vn -0.000000 0.000000 1.000000
vn -0.000000 0.000000 1.000000
vn -0.000000 0.000000 1.000000
vn -0.000000 0.000000 1.000000
vn 0.000000 0.000000 1.000000
vn 0.000000 0.000000 1.000000
vn 0.000000 0.000000 1.000000
vn 0.000000 0.000000 1.000000
vn 0.000000 0.000000 1.000000
vn 0.000000 0.000000 1.000000
vn 0.000000 0.000000 1.000000
vn 0.000000 0.000000 1.000000
vn -0.268277 0.963342 0.000000
vn -0.272182 0.962246 0.000001
vn -0.272299 0.962213 0.000001
vn -0.268293 0.963337 0.000000
vn 0.238025 0.971259 0.000000
vn 0.237870 0.971297 0.000000
vn 0.358395 0.933570 -0.000001
vn 0.358395 0.933570 -0.000001
vn 0.198659 0.980069 -0.000001
vn 0.198658 0.980069 -0.000001
vn -0.041756 0.999128 0.000000
vn -0.041758 0.999128 0.000000
vn 0.000000 0.000000 1.000000
vn 0.000000 0.000000 1.000000
vn -0.039368 0.999225 0.000002
vn -0.039368 0.999225 0.000002
s 1
g Beginning_City_Level_Piece_4
usemtl initialShadingGroup
f 24/1/1 23/2/2 25/3/3 26/4/4
f 26/4/4 25/3/3 28/5/5 27/6/6
f 27/6/6 28/5/5 29/7/7 30/8/8
f 30/8/8 29/7/7 31/9/9 32/10/10
f 32/10/10 31/9/9 33/11/11 34/12/12
f 34/12/12 33/11/11 35/13/13 36/14/14
f 36/14/14 35/13/13 37/15/15 38/16/16
f 38/16/16 37/15/15 39/17/17 40/18/18
f 40/18/18 39/17/17 42/19/19 41/20/20
f 41/20/20 42/19/19 43/21/21 44/22/22
s 2
f 1/23/23 5/24/24 25/3/25 23/2/26
s 3
f 24/1/27 26/4/28 6/25/29 3/26/30
s 2
f 25/3/25 5/24/24 2/27/31 28/5/32
s 3
f 6/25/29 26/4/28 27/6/33 4/28/34
f 4/28/34 27/6/33 30/8/35 14/29/36
s 2
f 28/5/32 2/27/31 7/30/37 29/7/38
f 12/31/39 13/32/40 42/19/41 39/17/42
f 11/33/43 12/31/39 39/17/42 37/15/44
f 10/34/45 11/33/43 37/15/44 35/13/46
f 9/35/47 10/34/45 35/13/46 33/11/48
f 7/30/37 8/36/49 31/9/50 29/7/38
f 8/36/49 9/35/47 33/11/48 31/9/50
s 3
f 40/18/51 41/20/52 20/37/53 19/38/54
f 38/16/55 40/18/51 19/38/54 18/39/56
f 36/14/57 38/16/55 18/39/56 17/40/58
f 34/12/59 36/14/57 17/40/58 16/41/60
f 30/8/35 32/10/61 15/42/62 14/29/36
f 32/10/61 34/12/59 16/41/60 15/42/62
s 2
f 42/19/41 13/32/40 21/43/63 43/21/64
s 3
f 20/37/53 41/20/52 44/22/65 22/44/66
