# This file uses meters as units for non-parametric coordinates.

mtllib Finish_piece.mtl
g default
v -220.266846 -127.877945 100.000000
v -220.266846 127.877937 -100.000000
v 220.267090 -127.877945 -100.000000
v -220.266846 121.878540 100.000000
v -220.266846 127.877937 94.000595
v 220.267090 -127.877945 97.000603
v 217.267578 -127.877945 100.000000
v 217.267578 121.878540 100.000000
v 220.267090 124.878235 97.000298
v 217.267578 127.877937 -100.000000
v 220.267090 124.878540 -100.000000
v 217.267578 127.877937 94.000595
vt 0.883176 0.505311
vt 0.881675 0.692840
vt 0.994128 0.508559
vt 0.886856 0.505408
vt 0.882393 0.693243
vt 0.990024 0.696722
vt 0.987490 0.780848
vt 0.879671 0.777428
vt 0.880180 0.691109
vt 0.798797 0.693984
vt 0.798797 0.504125
vt 0.990074 0.694912
vt 0.883734 0.691471
vt 0.798946 0.695795
vn 0.000000 0.000000 1.000000
vn 0.000000 0.000000 1.000000
vn 0.000000 0.000000 1.000000
vn 0.000000 0.000000 1.000000
vn 0.000000 1.000000 0.000000
vn 0.000000 1.000000 0.000000
vn 0.000000 1.000000 0.000000
vn 0.000000 1.000000 0.000000
vn 1.000000 0.000000 0.000000
vn 1.000000 0.000000 0.000000
vn 1.000000 0.000000 0.000000
vn 1.000000 0.000000 0.000000
vn 0.000000 0.707107 0.707106
vn 0.000000 0.707107 0.707106
vn 0.000000 0.707107 0.707106
vn 0.000000 0.707107 0.707106
vn 0.000000 0.707107 0.707106
vn 0.707111 0.000000 0.707102
vn 0.707111 0.000000 0.707102
vn 0.707111 0.000000 0.707102
vn 0.707111 0.000000 0.707102
vn 0.707111 0.707103 0.000001
vn 0.707111 0.707103 0.000001
vn 0.707111 0.707103 0.000001
vn 0.707111 0.707103 0.000001
s off
g Finish
usemtl initialShadingGroup
f 1/3/1 7/12/2 8/13/3 4/4/4
f 5/1/5 12/9/6 10/10/7 2/11/8
f 9/5/9 6/6/10 3/7/11 11/8/12
f 5/1/13 4/4/14 8/13/15 9/2/16 12/9/17
f 7/12/18 6/6/19 9/5/20 8/13/21
f 11/14/22 10/10/23 12/9/24 9/2/25
