# This file uses meters as units for non-parametric coordinates.

mtllib Steel bridge.mtl
g default
v -399.986328 -177.031250 100.000015
v -299.986328 -177.031250 100.000015
v -199.986328 -177.031250 100.000015
v -99.986328 -177.031250 100.000015
v 0.013672 -177.031250 100.000015
v 100.013672 -177.031250 100.000015
v 200.014648 -177.031250 100.000015
v 300.013672 -177.031250 100.000015
v 400.013672 -177.031250 100.000015
v -399.986328 72.395203 -99.999985
v -299.986328 114.990784 -99.999985
v -199.986328 143.306763 -99.999985
v -99.986328 165.620300 -99.999985
v 0.013672 177.031128 -99.999985
v 100.013672 176.733093 -99.999985
v 200.014648 156.637512 -99.999985
v 300.013672 126.125183 -99.999985
v 400.013672 86.478210 -99.999985
v -398.961914 65.507263 100.000015
v -399.942383 72.396301 93.077118
v -299.073242 108.078003 100.000015
v -299.952148 114.991699 93.077370
v -198.867188 136.395691 100.000015
v -199.959961 143.307434 93.077080
v -97.688477 159.085754 100.000015
v -99.986328 165.620728 93.077072
v 2.385742 170.522034 100.000015
v 0.021484 177.031311 93.077194
v 102.310547 170.201721 100.000015
v 100.012695 176.733093 93.077080
v 202.258789 150.090210 100.000015
v 200.003906 156.637024 93.076973
v 301.651367 119.385986 100.000015
v 299.995117 126.124695 93.076889
v 400.816406 79.595276 100.000015
v 399.985352 86.477539 93.076935
v -499.932617 23.571228 93.076752
v -500.313477 16.626892 100.000015
v 500.313477 31.038086 100.000015
v 499.974609 37.953979 93.077034
v 500.013672 -177.031250 100.000015
v -499.985352 -177.031250 100.000015
v 500.013672 37.955078 -99.999985
v -499.985352 23.569885 -99.999985
vt 0.824408 0.201872
vt 0.826305 0.201876
vt 0.819637 0.220787
vt 0.817850 0.220589
vt 0.813912 0.238937
vt 0.812166 0.238765
vt 0.809966 0.256628
vt 0.808188 0.256412
vt 0.806797 0.274256
vt 0.805096 0.273836
vt 0.805041 0.291482
vt 0.803356 0.291047
vt 0.804651 0.308611
vt 0.803018 0.308164
vt 0.806687 0.326021
vt 0.804987 0.325581
vt 0.809981 0.343742
vt 0.808244 0.343398
vt 0.814386 0.361950
vt 0.812619 0.361735
vt 0.819896 0.380906
vt 0.818000 0.380833
vt 0.860604 0.367122
vt 0.858054 0.385210
vt 0.863114 0.348659
vt 0.865203 0.329999
vt 0.866720 0.311212
vt 0.867201 0.292388
vt 0.867061 0.273610
vt 0.866367 0.254907
vt 0.865173 0.236273
vt 0.862035 0.199657
vt 0.863601 0.217814
vt 0.783156 0.388379
vt 0.778383 0.368659
vt 0.774038 0.348967
vt 0.770731 0.329250
vt 0.768882 0.309526
vt 0.768882 0.289900
vt 0.770573 0.270303
vt 0.773742 0.250702
vt 0.778086 0.231282
vt 0.783640 0.211501
vt 0.789696 0.191870
vn -0.321657 0.662837 0.676154
vn -0.321657 0.662837 0.676154
vn -0.304184 0.661950 0.685051
vn -0.299020 0.661640 0.687618
vn -0.241966 0.670104 0.701722
vn -0.233451 0.672034 0.702760
vn -0.174296 0.685014 0.707373
vn -0.172720 0.685389 0.707397
vn -0.115794 0.701783 0.702918
vn -0.121410 0.700086 0.703662
vn -0.034701 0.721617 0.691422
vn -0.045646 0.719426 0.693067
vn 0.089065 0.738939 0.667860
vn 0.060419 0.736080 0.674193
vn 0.197115 0.737846 0.645546
vn 0.177870 0.740086 0.648563
vn 0.261764 0.718329 0.644580
vn 0.247234 0.724752 0.643125
vn 0.313608 0.692282 0.649920
vn 0.302012 0.698565 0.648687
vn 0.331921 0.682048 0.651643
vn 0.331921 0.682048 0.651643
vn 0.000000 0.000000 1.000000
vn 0.000000 0.000000 1.000000
vn 0.000000 0.000000 1.000000
vn 0.000000 0.000000 1.000000
vn -0.000000 0.000000 1.000000
vn -0.000000 0.000000 1.000000
vn -0.000000 0.000000 1.000000
vn -0.000000 0.000000 1.000000
vn 0.000000 0.000000 1.000000
vn 0.000000 0.000000 1.000000
vn 0.000000 0.000000 1.000000
vn 0.000000 0.000000 1.000000
vn 0.000000 0.000000 1.000000
vn 0.000000 0.000000 1.000000
vn -0.000000 0.000000 1.000000
vn -0.000000 0.000000 1.000000
vn 0.000000 0.000000 1.000000
vn 0.000000 0.000000 1.000000
vn 0.000000 0.000000 1.000000
vn 0.000000 0.000000 1.000000
vn 0.000000 0.000000 1.000000
vn 0.000000 0.000000 1.000000
vn 0.403406 0.915021 0.000064
vn 0.436573 0.899669 0.000080
vn 0.436573 0.899669 0.000080
vn 0.403412 0.915018 0.000064
vn 0.331033 0.943619 0.000036
vn 0.331037 0.943618 0.000036
vn 0.245318 0.969443 0.000016
vn 0.245321 0.969442 0.000016
vn 0.101447 0.994841 0.000003
vn 0.101448 0.994841 0.000003
vn -0.055476 0.998460 0.000000
vn -0.055479 0.998460 0.000000
vn -0.166281 0.986078 0.000007
vn -0.166281 0.986079 0.000007
vn -0.245423 0.969416 0.000026
vn -0.245427 0.969415 0.000026
vn -0.334180 0.942509 0.000057
vn -0.334193 0.942505 0.000057
vn -0.438767 0.898601 0.000104
vn -0.415745 0.909481 0.000090
vn -0.415751 0.909479 0.000090
vn -0.438767 0.898601 0.000104
s 1
g Steel_Bridge
usemtl initialShadingGroup
f 37/1/1 38/2/2 19/3/3 20/4/4
f 20/4/4 19/3/3 21/5/5 22/6/6
f 22/6/6 21/5/5 23/7/7 24/8/8
f 24/8/8 23/7/7 25/9/9 26/10/10
f 26/10/10 25/9/9 27/11/11 28/12/12
f 28/12/12 27/11/11 29/13/13 30/14/14
f 30/14/14 29/13/13 31/15/15 32/16/16
f 32/16/16 31/15/15 33/17/17 34/18/18
f 34/18/18 33/17/17 35/19/19 36/20/20
f 36/20/20 35/19/19 39/21/21 40/22/22
s 2
f 9/23/23 41/24/24 39/21/25 35/19/26
f 8/25/27 9/23/23 35/19/26 33/17/28
f 7/26/29 8/25/27 33/17/28 31/15/30
f 6/27/31 7/26/29 31/15/30 29/13/32
f 5/28/33 6/27/31 29/13/32 27/11/34
f 4/29/35 5/28/33 27/11/34 25/9/36
f 3/30/37 4/29/35 25/9/36 23/7/38
f 2/31/39 3/30/37 23/7/38 21/5/40
f 42/32/41 1/33/42 19/3/43 38/2/44
f 1/33/42 2/31/39 21/5/40 19/3/43
s 3
f 36/20/45 40/22/46 43/34/47 18/35/48
f 34/18/49 36/20/45 18/35/48 17/36/50
f 32/16/51 34/18/49 17/36/50 16/37/52
f 30/14/53 32/16/51 16/37/52 15/38/54
f 28/12/55 30/14/53 15/38/54 14/39/56
f 26/10/57 28/12/55 14/39/56 13/40/58
f 24/8/59 26/10/57 13/40/58 12/41/60
f 22/6/61 24/8/59 12/41/60 11/42/62
f 37/1/63 20/4/64 10/43/65 44/44/66
f 20/4/64 22/6/61 11/42/62 10/43/65
