# This file uses meters as units for non-parametric coordinates.

mtllib Wooden bridge.mtl
g default
v -500.142873 -96.405563 100.000015
v -500.142385 96.405563 -99.999985
v -398.180470 -96.405563 100.000015
v -398.180470 66.158371 -99.999985
v -299.469533 -96.405563 100.000015
v -200.607228 -96.405563 100.000015
v -299.469533 34.467819 -99.999985
v -200.607228 18.264084 -99.999985
v 399.857127 61.691086 -99.999985
v 399.857127 -96.405563 100.000015
v -500.142385 96.405563 93.008270
v -503.010060 89.413803 100.000015
v -398.180470 66.158371 93.008270
v -402.105275 60.208847 100.000015
v -300.816213 27.465561 100.000015
v -299.469533 34.467819 93.008270
v -200.607228 18.264084 93.008270
v -199.678517 11.279221 100.000015
v 403.690135 55.469101 100.000015
v 399.857127 61.691086 93.008270
v 297.654979 -96.405563 100.000015
v 198.160838 -96.405563 100.000015
v 98.666698 -96.405563 100.000015
v -0.312306 -96.405563 100.000015
v -99.291310 -96.405563 100.000015
v -98.953420 -4.858994 100.000015
v 1.047069 -15.729568 100.000015
v 101.047557 -15.442093 100.000015
v 201.563182 -4.926468 100.000015
v 302.079295 24.185837 100.000015
v -101.332326 1.923447 93.008270
v -1.332814 -9.036636 93.008270
v 98.666698 -8.838638 93.008270
v 199.181346 1.587509 93.008270
v 299.696483 30.610275 93.008270
v -99.271291 1.954147 -99.999985
v -0.302541 -9.021255 -99.999985
v 98.666698 -8.838638 -99.999985
v 198.151073 1.572067 -99.999985
v 297.634959 30.579514 -99.999985
v 503.009959 89.413803 100.000015
v 499.857127 96.405563 93.008270
v 499.857127 96.405563 -99.999985
v 499.857127 -96.405563 100.000015
vt 0.626154 0.313727
vt 0.627960 0.313404
vt 0.629768 0.332363
vt 0.628070 0.332917
vt 0.632094 0.351738
vt 0.630249 0.351835
vt 0.632879 0.370525
vt 0.631124 0.370235
vt 0.627890 0.502627
vt 0.626082 0.502287
vt 0.628260 0.483205
vt 0.630015 0.483714
vt 0.591670 0.316825
vt 0.593567 0.335921
vt 0.660608 0.319740
vt 0.657329 0.337825
vt 0.654404 0.355138
vt 0.652190 0.372572
vt 0.596362 0.372071
vt 0.595227 0.354271
vt 0.591670 0.498926
vt 0.593733 0.479945
vt 0.656684 0.477831
vt 0.660301 0.495447
vt 0.650347 0.390482
vt 0.649302 0.407945
vt 0.634529 0.407823
vt 0.633841 0.389261
vt 0.649227 0.425348
vt 0.634560 0.426334
vt 0.650456 0.442688
vt 0.633950 0.445074
vt 0.653192 0.459932
vt 0.631962 0.464345
vt 0.632104 0.388741
vt 0.597257 0.390259
vt 0.630224 0.464075
vt 0.595610 0.460981
vt 0.632162 0.444741
vt 0.632810 0.425934
vt 0.632775 0.407356
vt 0.596990 0.442801
vt 0.597536 0.425225
vt 0.597700 0.407814
vn 0.196418 0.670231 0.715689
vn 0.196418 0.670231 0.715689
vn 0.205362 0.671892 0.711609
vn 0.208023 0.672374 0.710380
vn 0.165445 0.688381 0.706230
vn 0.167619 0.687817 0.706266
vn 0.115545 0.712357 0.692240
vn 0.115064 0.709642 0.695103
vn -0.223924 0.650058 0.726142
vn -0.223924 0.650058 0.726142
vn -0.215971 0.664974 0.714958
vn -0.217554 0.662041 0.717197
vn 0.284402 0.958705 0.000000
vn 0.284402 0.958705 0.000000
vn 0.294922 0.955521 0.000000
vn 0.294922 0.955521 0.000000
vn 0.000000 0.000000 1.000000
vn 0.000000 0.000000 1.000000
vn 0.000000 0.000000 1.000000
vn 0.000000 0.000000 1.000000
vn -0.000000 0.000000 1.000000
vn -0.000000 0.000000 1.000000
vn -0.000000 0.000000 1.000000
vn -0.000000 0.000000 1.000000
vn 0.235590 0.971853 0.000000
vn 0.161189 0.986923 0.000472
vn 0.161189 0.986923 0.000472
vn 0.235590 0.971853 0.000000
vn -0.327946 0.944696 0.000000
vn -0.310895 0.950444 0.000746
vn -0.310895 0.950444 0.000746
vn -0.327946 0.944696 0.000000
vn -0.000000 0.000000 1.000000
vn 0.000000 0.000000 1.000000
vn 0.000000 0.000000 1.000000
vn -0.000000 0.000000 1.000000
vn 0.000000 0.000000 1.000000
vn 0.000000 0.000000 1.000000
vn 0.000000 0.000000 1.000000
vn 0.000000 0.000000 1.000000
vn -0.000000 0.000000 1.000000
vn -0.000000 0.000000 1.000000
vn 0.000000 0.000000 1.000000
vn 0.000000 0.000000 1.000000
vn 0.000000 0.000000 1.000000
vn 0.000000 0.000000 1.000000
vn 0.094641 0.727449 0.679604
vn 0.102533 0.725377 0.680673
vn 0.135523 0.990774 0.000966
vn 0.135180 0.990821 0.000967
vn -0.203568 0.681128 0.703296
vn -0.203891 0.680906 0.703417
vn -0.286223 0.958161 0.001804
vn -0.286322 0.958132 0.001800
vn -0.142360 0.699727 0.700083
vn -0.133621 0.701832 0.699698
vn -0.043326 0.719234 0.693416
vn -0.033790 0.720530 0.692600
vn 0.031495 0.727767 0.685101
vn 0.045921 0.728976 0.682997
vn -0.193737 0.981053 0.001201
vn -0.193152 0.981168 0.001195
vn -0.053106 0.998589 0.000136
vn -0.053106 0.998589 0.000136
vn 0.054276 0.998526 0.000519
vn 0.053898 0.998546 0.000516
s 1
g Wooden_Bridge1
usemtl initialShadingGroup
f 11/1/1 12/2/2 14/3/3 13/4/4
f 13/4/4 14/3/3 15/5/5 16/6/6
f 16/6/6 15/5/5 18/7/7 17/8/8
f 41/9/9 42/10/10 20/11/11 19/12/12
s 3
f 2/13/13 11/1/14 13/4/15 4/14/16
s 4
f 12/2/17 1/15/18 3/16/19 14/3/20
f 5/17/21 6/18/22 18/7/23 15/5/24
s 3
f 16/6/25 17/8/26 8/19/27 7/20/28
s 4
f 3/16/19 5/17/21 15/5/24 14/3/20
s 3
f 13/4/15 16/6/25 7/20/28 4/14/16
f 43/21/29 9/22/30 20/11/31 42/10/32
s 4
f 10/23/33 44/24/34 41/9/35 19/12/36
f 25/25/37 24/26/38 27/27/39 26/28/40
f 24/26/38 23/29/41 28/30/42 27/27/39
f 23/29/41 22/31/43 29/32/44 28/30/42
f 22/31/43 21/33/45 30/34/46 29/32/44
s 1
f 17/8/8 18/7/7 26/28/47 31/35/48
s 4
f 6/18/22 25/25/37 26/28/40 18/7/23
s 3
f 17/8/26 31/35/49 36/36/50 8/19/27
s 4
f 30/34/46 21/33/45 10/23/33 19/12/36
s 1
f 35/37/51 30/34/52 19/12/12 20/11/11
s 3
f 40/38/53 35/37/54 20/11/31 9/22/30
s 1
f 29/32/55 30/34/52 35/37/51 34/39/56
f 28/30/57 29/32/55 34/39/56 33/40/58
f 26/28/47 27/27/59 32/41/60 31/35/48
f 27/27/59 28/30/57 33/40/58 32/41/60
s 3
f 34/39/61 35/37/54 40/38/53 39/42/62
f 33/40/63 34/39/61 39/42/62 38/43/64
f 31/35/49 32/41/65 37/44/66 36/36/50
f 32/41/65 33/40/63 38/43/64 37/44/66
